<mxfile host="app.diagrams.net" modified="2021-02-26T04:36:06.001Z" agent="5.0 (Macintosh; Intel Mac OS X 10_15_7) AppleWebKit/605.1.15 (KHTML, like Gecko) Version/14.0.2 Safari/605.1.15" etag="8UjdzFMY3iaNDCiJ_n-1" version="14.3.2" type="github">
  <diagram id="R2lEEEUBdFMjLlhIrx00" name="Page-1">
    <mxGraphModel dx="1482" dy="882" grid="1" gridSize="10" guides="1" tooltips="1" connect="1" arrows="1" fold="1" page="1" pageScale="1" pageWidth="850" pageHeight="1100" math="0" shadow="0" extFonts="Permanent Marker^https://fonts.googleapis.com/css?family=Permanent+Marker">
      <root>
        <mxCell id="0" />
        <mxCell id="1" parent="0" />
        <mxCell id="C-vyLk0tnHw3VtMMgP7b-1" value="" style="edgeStyle=entityRelationEdgeStyle;endArrow=ERzeroToMany;startArrow=ERone;endFill=1;startFill=0;" parent="1" source="C-vyLk0tnHw3VtMMgP7b-24" target="C-vyLk0tnHw3VtMMgP7b-6" edge="1">
          <mxGeometry width="100" height="100" relative="1" as="geometry">
            <mxPoint x="340" y="720" as="sourcePoint" />
            <mxPoint x="440" y="620" as="targetPoint" />
          </mxGeometry>
        </mxCell>
        <mxCell id="C-vyLk0tnHw3VtMMgP7b-12" value="" style="edgeStyle=entityRelationEdgeStyle;endArrow=ERzeroToMany;startArrow=ERone;endFill=1;startFill=0;" parent="1" source="C-vyLk0tnHw3VtMMgP7b-3" target="C-vyLk0tnHw3VtMMgP7b-17" edge="1">
          <mxGeometry width="100" height="100" relative="1" as="geometry">
            <mxPoint x="400" y="180" as="sourcePoint" />
            <mxPoint x="460" y="205" as="targetPoint" />
          </mxGeometry>
        </mxCell>
        <mxCell id="C-vyLk0tnHw3VtMMgP7b-2" value="Orders" style="shape=table;startSize=30;container=1;collapsible=1;childLayout=tableLayout;fixedRows=1;rowLines=0;fontStyle=1;align=center;resizeLast=1;" parent="1" vertex="1">
          <mxGeometry x="440" y="80" width="250" height="130" as="geometry" />
        </mxCell>
        <mxCell id="C-vyLk0tnHw3VtMMgP7b-3" value="" style="shape=partialRectangle;collapsible=0;dropTarget=0;pointerEvents=0;fillColor=none;points=[[0,0.5],[1,0.5]];portConstraint=eastwest;top=0;left=0;right=0;bottom=1;" parent="C-vyLk0tnHw3VtMMgP7b-2" vertex="1">
          <mxGeometry y="30" width="250" height="30" as="geometry" />
        </mxCell>
        <mxCell id="C-vyLk0tnHw3VtMMgP7b-4" value="PK" style="shape=partialRectangle;overflow=hidden;connectable=0;fillColor=none;top=0;left=0;bottom=0;right=0;fontStyle=1;" parent="C-vyLk0tnHw3VtMMgP7b-3" vertex="1">
          <mxGeometry width="30" height="30" as="geometry" />
        </mxCell>
        <mxCell id="C-vyLk0tnHw3VtMMgP7b-5" value="order_id int NOT NULL " style="shape=partialRectangle;overflow=hidden;connectable=0;fillColor=none;top=0;left=0;bottom=0;right=0;align=left;spacingLeft=6;fontStyle=5;" parent="C-vyLk0tnHw3VtMMgP7b-3" vertex="1">
          <mxGeometry x="30" width="220" height="30" as="geometry" />
        </mxCell>
        <mxCell id="C-vyLk0tnHw3VtMMgP7b-6" value="" style="shape=partialRectangle;collapsible=0;dropTarget=0;pointerEvents=0;fillColor=none;points=[[0,0.5],[1,0.5]];portConstraint=eastwest;top=0;left=0;right=0;bottom=0;" parent="C-vyLk0tnHw3VtMMgP7b-2" vertex="1">
          <mxGeometry y="60" width="250" height="30" as="geometry" />
        </mxCell>
        <mxCell id="C-vyLk0tnHw3VtMMgP7b-7" value="FK1" style="shape=partialRectangle;overflow=hidden;connectable=0;fillColor=none;top=0;left=0;bottom=0;right=0;" parent="C-vyLk0tnHw3VtMMgP7b-6" vertex="1">
          <mxGeometry width="30" height="30" as="geometry" />
        </mxCell>
        <mxCell id="C-vyLk0tnHw3VtMMgP7b-8" value="customer_id int NOT NULL" style="shape=partialRectangle;overflow=hidden;connectable=0;fillColor=none;top=0;left=0;bottom=0;right=0;align=left;spacingLeft=6;" parent="C-vyLk0tnHw3VtMMgP7b-6" vertex="1">
          <mxGeometry x="30" width="220" height="30" as="geometry" />
        </mxCell>
        <mxCell id="C-vyLk0tnHw3VtMMgP7b-9" value="" style="shape=partialRectangle;collapsible=0;dropTarget=0;pointerEvents=0;fillColor=none;points=[[0,0.5],[1,0.5]];portConstraint=eastwest;top=0;left=0;right=0;bottom=0;" parent="C-vyLk0tnHw3VtMMgP7b-2" vertex="1">
          <mxGeometry y="90" width="250" height="30" as="geometry" />
        </mxCell>
        <mxCell id="C-vyLk0tnHw3VtMMgP7b-10" value="" style="shape=partialRectangle;overflow=hidden;connectable=0;fillColor=none;top=0;left=0;bottom=0;right=0;" parent="C-vyLk0tnHw3VtMMgP7b-9" vertex="1">
          <mxGeometry width="30" height="30" as="geometry" />
        </mxCell>
        <mxCell id="C-vyLk0tnHw3VtMMgP7b-11" value="order_date date NOT NULL" style="shape=partialRectangle;overflow=hidden;connectable=0;fillColor=none;top=0;left=0;bottom=0;right=0;align=left;spacingLeft=6;" parent="C-vyLk0tnHw3VtMMgP7b-9" vertex="1">
          <mxGeometry x="30" width="220" height="30" as="geometry" />
        </mxCell>
        <mxCell id="C-vyLk0tnHw3VtMMgP7b-13" value="Shipments" style="shape=table;startSize=30;container=1;collapsible=1;childLayout=tableLayout;fixedRows=1;rowLines=0;fontStyle=1;align=center;resizeLast=1;" parent="1" vertex="1">
          <mxGeometry x="440" y="240" width="250" height="130" as="geometry" />
        </mxCell>
        <mxCell id="C-vyLk0tnHw3VtMMgP7b-14" value="" style="shape=partialRectangle;collapsible=0;dropTarget=0;pointerEvents=0;fillColor=none;points=[[0,0.5],[1,0.5]];portConstraint=eastwest;top=0;left=0;right=0;bottom=1;" parent="C-vyLk0tnHw3VtMMgP7b-13" vertex="1">
          <mxGeometry y="30" width="250" height="30" as="geometry" />
        </mxCell>
        <mxCell id="C-vyLk0tnHw3VtMMgP7b-15" value="PK" style="shape=partialRectangle;overflow=hidden;connectable=0;fillColor=none;top=0;left=0;bottom=0;right=0;fontStyle=1;" parent="C-vyLk0tnHw3VtMMgP7b-14" vertex="1">
          <mxGeometry width="30" height="30" as="geometry" />
        </mxCell>
        <mxCell id="C-vyLk0tnHw3VtMMgP7b-16" value="shipment_id int NOT NULL " style="shape=partialRectangle;overflow=hidden;connectable=0;fillColor=none;top=0;left=0;bottom=0;right=0;align=left;spacingLeft=6;fontStyle=5;" parent="C-vyLk0tnHw3VtMMgP7b-14" vertex="1">
          <mxGeometry x="30" width="220" height="30" as="geometry" />
        </mxCell>
        <mxCell id="C-vyLk0tnHw3VtMMgP7b-17" value="" style="shape=partialRectangle;collapsible=0;dropTarget=0;pointerEvents=0;fillColor=none;points=[[0,0.5],[1,0.5]];portConstraint=eastwest;top=0;left=0;right=0;bottom=0;" parent="C-vyLk0tnHw3VtMMgP7b-13" vertex="1">
          <mxGeometry y="60" width="250" height="30" as="geometry" />
        </mxCell>
        <mxCell id="C-vyLk0tnHw3VtMMgP7b-18" value="FK1" style="shape=partialRectangle;overflow=hidden;connectable=0;fillColor=none;top=0;left=0;bottom=0;right=0;" parent="C-vyLk0tnHw3VtMMgP7b-17" vertex="1">
          <mxGeometry width="30" height="30" as="geometry" />
        </mxCell>
        <mxCell id="C-vyLk0tnHw3VtMMgP7b-19" value="order_id int NOT NULL" style="shape=partialRectangle;overflow=hidden;connectable=0;fillColor=none;top=0;left=0;bottom=0;right=0;align=left;spacingLeft=6;" parent="C-vyLk0tnHw3VtMMgP7b-17" vertex="1">
          <mxGeometry x="30" width="220" height="30" as="geometry" />
        </mxCell>
        <mxCell id="C-vyLk0tnHw3VtMMgP7b-20" value="" style="shape=partialRectangle;collapsible=0;dropTarget=0;pointerEvents=0;fillColor=none;points=[[0,0.5],[1,0.5]];portConstraint=eastwest;top=0;left=0;right=0;bottom=0;" parent="C-vyLk0tnHw3VtMMgP7b-13" vertex="1">
          <mxGeometry y="90" width="250" height="30" as="geometry" />
        </mxCell>
        <mxCell id="C-vyLk0tnHw3VtMMgP7b-21" value="" style="shape=partialRectangle;overflow=hidden;connectable=0;fillColor=none;top=0;left=0;bottom=0;right=0;" parent="C-vyLk0tnHw3VtMMgP7b-20" vertex="1">
          <mxGeometry width="30" height="30" as="geometry" />
        </mxCell>
        <mxCell id="C-vyLk0tnHw3VtMMgP7b-22" value="shipment_date date NOT NULL" style="shape=partialRectangle;overflow=hidden;connectable=0;fillColor=none;top=0;left=0;bottom=0;right=0;align=left;spacingLeft=6;" parent="C-vyLk0tnHw3VtMMgP7b-20" vertex="1">
          <mxGeometry x="30" width="220" height="30" as="geometry" />
        </mxCell>
        <mxCell id="C-vyLk0tnHw3VtMMgP7b-23" value="Customers" style="shape=table;startSize=30;container=1;collapsible=1;childLayout=tableLayout;fixedRows=1;rowLines=0;fontStyle=1;align=center;resizeLast=1;" parent="1" vertex="1">
          <mxGeometry x="120" y="80" width="250" height="100" as="geometry" />
        </mxCell>
        <mxCell id="C-vyLk0tnHw3VtMMgP7b-24" value="" style="shape=partialRectangle;collapsible=0;dropTarget=0;pointerEvents=0;fillColor=none;points=[[0,0.5],[1,0.5]];portConstraint=eastwest;top=0;left=0;right=0;bottom=1;" parent="C-vyLk0tnHw3VtMMgP7b-23" vertex="1">
          <mxGeometry y="30" width="250" height="30" as="geometry" />
        </mxCell>
        <mxCell id="C-vyLk0tnHw3VtMMgP7b-25" value="PK" style="shape=partialRectangle;overflow=hidden;connectable=0;fillColor=none;top=0;left=0;bottom=0;right=0;fontStyle=1;" parent="C-vyLk0tnHw3VtMMgP7b-24" vertex="1">
          <mxGeometry width="30" height="30" as="geometry" />
        </mxCell>
        <mxCell id="C-vyLk0tnHw3VtMMgP7b-26" value="customer_id int NOT NULL " style="shape=partialRectangle;overflow=hidden;connectable=0;fillColor=none;top=0;left=0;bottom=0;right=0;align=left;spacingLeft=6;fontStyle=5;" parent="C-vyLk0tnHw3VtMMgP7b-24" vertex="1">
          <mxGeometry x="30" width="220" height="30" as="geometry" />
        </mxCell>
        <mxCell id="C-vyLk0tnHw3VtMMgP7b-27" value="" style="shape=partialRectangle;collapsible=0;dropTarget=0;pointerEvents=0;fillColor=none;points=[[0,0.5],[1,0.5]];portConstraint=eastwest;top=0;left=0;right=0;bottom=0;" parent="C-vyLk0tnHw3VtMMgP7b-23" vertex="1">
          <mxGeometry y="60" width="250" height="30" as="geometry" />
        </mxCell>
        <mxCell id="C-vyLk0tnHw3VtMMgP7b-28" value="" style="shape=partialRectangle;overflow=hidden;connectable=0;fillColor=none;top=0;left=0;bottom=0;right=0;" parent="C-vyLk0tnHw3VtMMgP7b-27" vertex="1">
          <mxGeometry width="30" height="30" as="geometry" />
        </mxCell>
        <mxCell id="C-vyLk0tnHw3VtMMgP7b-29" value="customer_name char(50) NOT NULL" style="shape=partialRectangle;overflow=hidden;connectable=0;fillColor=none;top=0;left=0;bottom=0;right=0;align=left;spacingLeft=6;" parent="C-vyLk0tnHw3VtMMgP7b-27" vertex="1">
          <mxGeometry x="30" width="220" height="30" as="geometry" />
        </mxCell>
        <mxCell id="OICg_AFk18oYCSIzm3PE-1" value="Sample" style="text;html=1;strokeColor=none;fillColor=none;align=center;verticalAlign=middle;whiteSpace=wrap;rounded=0;" parent="1" vertex="1">
          <mxGeometry x="120" y="40" width="40" height="20" as="geometry" />
        </mxCell>
        <mxCell id="OICg_AFk18oYCSIzm3PE-2" value="&lt;font style=&quot;font-size: 18px&quot;&gt;Data Modeling&lt;/font&gt;" style="text;html=1;strokeColor=none;fillColor=none;align=center;verticalAlign=middle;whiteSpace=wrap;rounded=0;" parent="1" vertex="1">
          <mxGeometry x="100" width="600" height="20" as="geometry" />
        </mxCell>
        <mxCell id="OICg_AFk18oYCSIzm3PE-32" value="Doctor" style="shape=table;startSize=30;container=1;collapsible=1;childLayout=tableLayout;fixedRows=1;rowLines=0;fontStyle=1;align=center;resizeLast=1;" parent="1" vertex="1">
          <mxGeometry x="40" y="640" width="180" height="160" as="geometry" />
        </mxCell>
        <mxCell id="OICg_AFk18oYCSIzm3PE-33" value="" style="shape=partialRectangle;collapsible=0;dropTarget=0;pointerEvents=0;fillColor=none;top=0;left=0;bottom=1;right=0;points=[[0,0.5],[1,0.5]];portConstraint=eastwest;" parent="OICg_AFk18oYCSIzm3PE-32" vertex="1">
          <mxGeometry y="30" width="180" height="30" as="geometry" />
        </mxCell>
        <mxCell id="OICg_AFk18oYCSIzm3PE-34" value="PK" style="shape=partialRectangle;connectable=0;fillColor=none;top=0;left=0;bottom=0;right=0;fontStyle=1;overflow=hidden;" parent="OICg_AFk18oYCSIzm3PE-33" vertex="1">
          <mxGeometry width="30" height="30" as="geometry" />
        </mxCell>
        <mxCell id="OICg_AFk18oYCSIzm3PE-35" value="doctorID int NOT NULL" style="shape=partialRectangle;connectable=0;fillColor=none;top=0;left=0;bottom=0;right=0;align=left;spacingLeft=6;fontStyle=5;overflow=hidden;" parent="OICg_AFk18oYCSIzm3PE-33" vertex="1">
          <mxGeometry x="30" width="150" height="30" as="geometry" />
        </mxCell>
        <mxCell id="OICg_AFk18oYCSIzm3PE-36" value="" style="shape=partialRectangle;collapsible=0;dropTarget=0;pointerEvents=0;fillColor=none;top=0;left=0;bottom=0;right=0;points=[[0,0.5],[1,0.5]];portConstraint=eastwest;" parent="OICg_AFk18oYCSIzm3PE-32" vertex="1">
          <mxGeometry y="60" width="180" height="30" as="geometry" />
        </mxCell>
        <mxCell id="OICg_AFk18oYCSIzm3PE-37" value="" style="shape=partialRectangle;connectable=0;fillColor=none;top=0;left=0;bottom=0;right=0;editable=1;overflow=hidden;" parent="OICg_AFk18oYCSIzm3PE-36" vertex="1">
          <mxGeometry width="30" height="30" as="geometry" />
        </mxCell>
        <mxCell id="OICg_AFk18oYCSIzm3PE-38" value="Name string NOT NULL" style="shape=partialRectangle;connectable=0;fillColor=none;top=0;left=0;bottom=0;right=0;align=left;spacingLeft=6;overflow=hidden;" parent="OICg_AFk18oYCSIzm3PE-36" vertex="1">
          <mxGeometry x="30" width="150" height="30" as="geometry" />
        </mxCell>
        <mxCell id="OICg_AFk18oYCSIzm3PE-39" value="" style="shape=partialRectangle;collapsible=0;dropTarget=0;pointerEvents=0;fillColor=none;top=0;left=0;bottom=0;right=0;points=[[0,0.5],[1,0.5]];portConstraint=eastwest;" parent="OICg_AFk18oYCSIzm3PE-32" vertex="1">
          <mxGeometry y="90" width="180" height="30" as="geometry" />
        </mxCell>
        <mxCell id="OICg_AFk18oYCSIzm3PE-40" value="" style="shape=partialRectangle;connectable=0;fillColor=none;top=0;left=0;bottom=0;right=0;editable=1;overflow=hidden;" parent="OICg_AFk18oYCSIzm3PE-39" vertex="1">
          <mxGeometry width="30" height="30" as="geometry" />
        </mxCell>
        <mxCell id="OICg_AFk18oYCSIzm3PE-41" value="" style="shape=partialRectangle;connectable=0;fillColor=none;top=0;left=0;bottom=0;right=0;align=left;spacingLeft=6;overflow=hidden;" parent="OICg_AFk18oYCSIzm3PE-39" vertex="1">
          <mxGeometry x="30" width="150" height="30" as="geometry" />
        </mxCell>
        <mxCell id="OICg_AFk18oYCSIzm3PE-42" value="" style="shape=partialRectangle;collapsible=0;dropTarget=0;pointerEvents=0;fillColor=none;top=0;left=0;bottom=0;right=0;points=[[0,0.5],[1,0.5]];portConstraint=eastwest;" parent="OICg_AFk18oYCSIzm3PE-32" vertex="1">
          <mxGeometry y="120" width="180" height="30" as="geometry" />
        </mxCell>
        <mxCell id="OICg_AFk18oYCSIzm3PE-43" value="" style="shape=partialRectangle;connectable=0;fillColor=none;top=0;left=0;bottom=0;right=0;editable=1;overflow=hidden;" parent="OICg_AFk18oYCSIzm3PE-42" vertex="1">
          <mxGeometry width="30" height="30" as="geometry" />
        </mxCell>
        <mxCell id="OICg_AFk18oYCSIzm3PE-44" value="" style="shape=partialRectangle;connectable=0;fillColor=none;top=0;left=0;bottom=0;right=0;align=left;spacingLeft=6;overflow=hidden;" parent="OICg_AFk18oYCSIzm3PE-42" vertex="1">
          <mxGeometry x="30" width="150" height="30" as="geometry" />
        </mxCell>
        <mxCell id="OICg_AFk18oYCSIzm3PE-45" value="Patient" style="shape=table;startSize=30;container=1;collapsible=1;childLayout=tableLayout;fixedRows=1;rowLines=0;fontStyle=1;align=center;resizeLast=1;" parent="1" vertex="1">
          <mxGeometry x="40" y="440" width="210" height="160" as="geometry" />
        </mxCell>
        <mxCell id="OICg_AFk18oYCSIzm3PE-46" value="" style="shape=partialRectangle;collapsible=0;dropTarget=0;pointerEvents=0;fillColor=none;top=0;left=0;bottom=1;right=0;points=[[0,0.5],[1,0.5]];portConstraint=eastwest;" parent="OICg_AFk18oYCSIzm3PE-45" vertex="1">
          <mxGeometry y="30" width="210" height="30" as="geometry" />
        </mxCell>
        <mxCell id="OICg_AFk18oYCSIzm3PE-47" value="PK" style="shape=partialRectangle;connectable=0;fillColor=none;top=0;left=0;bottom=0;right=0;fontStyle=1;overflow=hidden;" parent="OICg_AFk18oYCSIzm3PE-46" vertex="1">
          <mxGeometry width="30" height="30" as="geometry" />
        </mxCell>
        <mxCell id="OICg_AFk18oYCSIzm3PE-48" value="patientID int  NOT NULL" style="shape=partialRectangle;connectable=0;fillColor=none;top=0;left=0;bottom=0;right=0;align=left;spacingLeft=6;fontStyle=5;overflow=hidden;" parent="OICg_AFk18oYCSIzm3PE-46" vertex="1">
          <mxGeometry x="30" width="180" height="30" as="geometry" />
        </mxCell>
        <mxCell id="OICg_AFk18oYCSIzm3PE-49" value="" style="shape=partialRectangle;collapsible=0;dropTarget=0;pointerEvents=0;fillColor=none;top=0;left=0;bottom=0;right=0;points=[[0,0.5],[1,0.5]];portConstraint=eastwest;" parent="OICg_AFk18oYCSIzm3PE-45" vertex="1">
          <mxGeometry y="60" width="210" height="30" as="geometry" />
        </mxCell>
        <mxCell id="OICg_AFk18oYCSIzm3PE-50" value="" style="shape=partialRectangle;connectable=0;fillColor=none;top=0;left=0;bottom=0;right=0;editable=1;overflow=hidden;" parent="OICg_AFk18oYCSIzm3PE-49" vertex="1">
          <mxGeometry width="30" height="30" as="geometry" />
        </mxCell>
        <mxCell id="OICg_AFk18oYCSIzm3PE-51" value="Patient_Name string NOT NULL" style="shape=partialRectangle;connectable=0;fillColor=none;top=0;left=0;bottom=0;right=0;align=left;spacingLeft=6;overflow=hidden;" parent="OICg_AFk18oYCSIzm3PE-49" vertex="1">
          <mxGeometry x="30" width="180" height="30" as="geometry" />
        </mxCell>
        <mxCell id="OICg_AFk18oYCSIzm3PE-52" value="" style="shape=partialRectangle;collapsible=0;dropTarget=0;pointerEvents=0;fillColor=none;top=0;left=0;bottom=0;right=0;points=[[0,0.5],[1,0.5]];portConstraint=eastwest;" parent="OICg_AFk18oYCSIzm3PE-45" vertex="1">
          <mxGeometry y="90" width="210" height="30" as="geometry" />
        </mxCell>
        <mxCell id="OICg_AFk18oYCSIzm3PE-53" value="" style="shape=partialRectangle;connectable=0;fillColor=none;top=0;left=0;bottom=0;right=0;editable=1;overflow=hidden;" parent="OICg_AFk18oYCSIzm3PE-52" vertex="1">
          <mxGeometry width="30" height="30" as="geometry" />
        </mxCell>
        <mxCell id="OICg_AFk18oYCSIzm3PE-54" value="Date_Of_Birth date NOT NULL" style="shape=partialRectangle;connectable=0;fillColor=none;top=0;left=0;bottom=0;right=0;align=left;spacingLeft=6;overflow=hidden;" parent="OICg_AFk18oYCSIzm3PE-52" vertex="1">
          <mxGeometry x="30" width="180" height="30" as="geometry" />
        </mxCell>
        <mxCell id="OICg_AFk18oYCSIzm3PE-55" value="" style="shape=partialRectangle;collapsible=0;dropTarget=0;pointerEvents=0;fillColor=none;top=0;left=0;bottom=0;right=0;points=[[0,0.5],[1,0.5]];portConstraint=eastwest;" parent="OICg_AFk18oYCSIzm3PE-45" vertex="1">
          <mxGeometry y="120" width="210" height="30" as="geometry" />
        </mxCell>
        <mxCell id="OICg_AFk18oYCSIzm3PE-56" value="" style="shape=partialRectangle;connectable=0;fillColor=none;top=0;left=0;bottom=0;right=0;editable=1;overflow=hidden;" parent="OICg_AFk18oYCSIzm3PE-55" vertex="1">
          <mxGeometry width="30" height="30" as="geometry" />
        </mxCell>
        <mxCell id="OICg_AFk18oYCSIzm3PE-57" value="" style="shape=partialRectangle;connectable=0;fillColor=none;top=0;left=0;bottom=0;right=0;align=left;spacingLeft=6;overflow=hidden;" parent="OICg_AFk18oYCSIzm3PE-55" vertex="1">
          <mxGeometry x="30" width="180" height="30" as="geometry" />
        </mxCell>
        <mxCell id="OICg_AFk18oYCSIzm3PE-58" value="Diseases" style="shape=table;startSize=30;container=1;collapsible=1;childLayout=tableLayout;fixedRows=1;rowLines=0;fontStyle=1;align=center;resizeLast=1;" parent="1" vertex="1">
          <mxGeometry x="440" y="680" width="200" height="160" as="geometry" />
        </mxCell>
        <mxCell id="OICg_AFk18oYCSIzm3PE-59" value="" style="shape=partialRectangle;collapsible=0;dropTarget=0;pointerEvents=0;fillColor=none;top=0;left=0;bottom=1;right=0;points=[[0,0.5],[1,0.5]];portConstraint=eastwest;" parent="OICg_AFk18oYCSIzm3PE-58" vertex="1">
          <mxGeometry y="30" width="200" height="30" as="geometry" />
        </mxCell>
        <mxCell id="OICg_AFk18oYCSIzm3PE-60" value="PK" style="shape=partialRectangle;connectable=0;fillColor=none;top=0;left=0;bottom=0;right=0;fontStyle=1;overflow=hidden;" parent="OICg_AFk18oYCSIzm3PE-59" vertex="1">
          <mxGeometry width="30" height="30" as="geometry" />
        </mxCell>
        <mxCell id="OICg_AFk18oYCSIzm3PE-61" value="diseaseID int NOT NULL" style="shape=partialRectangle;connectable=0;fillColor=none;top=0;left=0;bottom=0;right=0;align=left;spacingLeft=6;fontStyle=5;overflow=hidden;" parent="OICg_AFk18oYCSIzm3PE-59" vertex="1">
          <mxGeometry x="30" width="170" height="30" as="geometry" />
        </mxCell>
        <mxCell id="OICg_AFk18oYCSIzm3PE-65" value="" style="shape=partialRectangle;collapsible=0;dropTarget=0;pointerEvents=0;fillColor=none;top=0;left=0;bottom=0;right=0;points=[[0,0.5],[1,0.5]];portConstraint=eastwest;" parent="OICg_AFk18oYCSIzm3PE-58" vertex="1">
          <mxGeometry y="60" width="200" height="30" as="geometry" />
        </mxCell>
        <mxCell id="OICg_AFk18oYCSIzm3PE-66" value="FK" style="shape=partialRectangle;connectable=0;fillColor=none;top=0;left=0;bottom=0;right=0;editable=1;overflow=hidden;fontStyle=1" parent="OICg_AFk18oYCSIzm3PE-65" vertex="1">
          <mxGeometry width="30" height="30" as="geometry" />
        </mxCell>
        <mxCell id="OICg_AFk18oYCSIzm3PE-67" value="diagnosisID int NOT NULL" style="shape=partialRectangle;connectable=0;fillColor=none;top=0;left=0;bottom=0;right=0;align=left;spacingLeft=6;overflow=hidden;" parent="OICg_AFk18oYCSIzm3PE-65" vertex="1">
          <mxGeometry x="30" width="170" height="30" as="geometry" />
        </mxCell>
        <mxCell id="OICg_AFk18oYCSIzm3PE-62" value="" style="shape=partialRectangle;collapsible=0;dropTarget=0;pointerEvents=0;fillColor=none;top=0;left=0;bottom=0;right=0;points=[[0,0.5],[1,0.5]];portConstraint=eastwest;" parent="OICg_AFk18oYCSIzm3PE-58" vertex="1">
          <mxGeometry y="90" width="200" height="30" as="geometry" />
        </mxCell>
        <mxCell id="OICg_AFk18oYCSIzm3PE-63" value="" style="shape=partialRectangle;connectable=0;fillColor=none;top=0;left=0;bottom=0;right=0;editable=1;overflow=hidden;" parent="OICg_AFk18oYCSIzm3PE-62" vertex="1">
          <mxGeometry width="30" height="30" as="geometry" />
        </mxCell>
        <mxCell id="OICg_AFk18oYCSIzm3PE-64" value="Name string NOT NULL" style="shape=partialRectangle;connectable=0;fillColor=none;top=0;left=0;bottom=0;right=0;align=left;spacingLeft=6;overflow=hidden;" parent="OICg_AFk18oYCSIzm3PE-62" vertex="1">
          <mxGeometry x="30" width="170" height="30" as="geometry" />
        </mxCell>
        <mxCell id="OICg_AFk18oYCSIzm3PE-68" value="" style="shape=partialRectangle;collapsible=0;dropTarget=0;pointerEvents=0;fillColor=none;top=0;left=0;bottom=0;right=0;points=[[0,0.5],[1,0.5]];portConstraint=eastwest;" parent="OICg_AFk18oYCSIzm3PE-58" vertex="1">
          <mxGeometry y="120" width="200" height="30" as="geometry" />
        </mxCell>
        <mxCell id="OICg_AFk18oYCSIzm3PE-69" value="" style="shape=partialRectangle;connectable=0;fillColor=none;top=0;left=0;bottom=0;right=0;editable=1;overflow=hidden;" parent="OICg_AFk18oYCSIzm3PE-68" vertex="1">
          <mxGeometry width="30" height="30" as="geometry" />
        </mxCell>
        <mxCell id="OICg_AFk18oYCSIzm3PE-70" value="Condition string NOT NULL" style="shape=partialRectangle;connectable=0;fillColor=none;top=0;left=0;bottom=0;right=0;align=left;spacingLeft=6;overflow=hidden;" parent="OICg_AFk18oYCSIzm3PE-68" vertex="1">
          <mxGeometry x="30" width="170" height="30" as="geometry" />
        </mxCell>
        <mxCell id="OICg_AFk18oYCSIzm3PE-72" value="Medical Center" style="text;html=1;strokeColor=none;fillColor=none;align=center;verticalAlign=middle;whiteSpace=wrap;rounded=0;" parent="1" vertex="1">
          <mxGeometry x="30" y="400" width="100" height="20" as="geometry" />
        </mxCell>
        <mxCell id="OICg_AFk18oYCSIzm3PE-73" value="Craigslist" style="text;html=1;strokeColor=none;fillColor=none;align=center;verticalAlign=middle;whiteSpace=wrap;rounded=0;" parent="1" vertex="1">
          <mxGeometry x="30" y="1120" width="40" height="20" as="geometry" />
        </mxCell>
        <mxCell id="OICg_AFk18oYCSIzm3PE-127" value="Region" style="shape=table;startSize=30;container=1;collapsible=1;childLayout=tableLayout;fixedRows=1;rowLines=0;fontStyle=1;align=center;resizeLast=1;" parent="1" vertex="1">
          <mxGeometry x="200" y="1140" width="180" height="160" as="geometry" />
        </mxCell>
        <mxCell id="OICg_AFk18oYCSIzm3PE-128" value="" style="shape=partialRectangle;collapsible=0;dropTarget=0;pointerEvents=0;fillColor=none;top=0;left=0;bottom=1;right=0;points=[[0,0.5],[1,0.5]];portConstraint=eastwest;" parent="OICg_AFk18oYCSIzm3PE-127" vertex="1">
          <mxGeometry y="30" width="180" height="30" as="geometry" />
        </mxCell>
        <mxCell id="OICg_AFk18oYCSIzm3PE-129" value="PK" style="shape=partialRectangle;connectable=0;fillColor=none;top=0;left=0;bottom=0;right=0;fontStyle=1;overflow=hidden;" parent="OICg_AFk18oYCSIzm3PE-128" vertex="1">
          <mxGeometry width="30" height="30" as="geometry" />
        </mxCell>
        <mxCell id="OICg_AFk18oYCSIzm3PE-130" value="regionID int NOT NULL" style="shape=partialRectangle;connectable=0;fillColor=none;top=0;left=0;bottom=0;right=0;align=left;spacingLeft=6;fontStyle=5;overflow=hidden;" parent="OICg_AFk18oYCSIzm3PE-128" vertex="1">
          <mxGeometry x="30" width="150" height="30" as="geometry" />
        </mxCell>
        <mxCell id="OICg_AFk18oYCSIzm3PE-131" value="" style="shape=partialRectangle;collapsible=0;dropTarget=0;pointerEvents=0;fillColor=none;top=0;left=0;bottom=0;right=0;points=[[0,0.5],[1,0.5]];portConstraint=eastwest;" parent="OICg_AFk18oYCSIzm3PE-127" vertex="1">
          <mxGeometry y="60" width="180" height="30" as="geometry" />
        </mxCell>
        <mxCell id="OICg_AFk18oYCSIzm3PE-132" value="" style="shape=partialRectangle;connectable=0;fillColor=none;top=0;left=0;bottom=0;right=0;editable=1;overflow=hidden;" parent="OICg_AFk18oYCSIzm3PE-131" vertex="1">
          <mxGeometry width="30" height="30" as="geometry" />
        </mxCell>
        <mxCell id="OICg_AFk18oYCSIzm3PE-133" value="Name string NOT NULL" style="shape=partialRectangle;connectable=0;fillColor=none;top=0;left=0;bottom=0;right=0;align=left;spacingLeft=6;overflow=hidden;" parent="OICg_AFk18oYCSIzm3PE-131" vertex="1">
          <mxGeometry x="30" width="150" height="30" as="geometry" />
        </mxCell>
        <mxCell id="OICg_AFk18oYCSIzm3PE-134" value="" style="shape=partialRectangle;collapsible=0;dropTarget=0;pointerEvents=0;fillColor=none;top=0;left=0;bottom=0;right=0;points=[[0,0.5],[1,0.5]];portConstraint=eastwest;" parent="OICg_AFk18oYCSIzm3PE-127" vertex="1">
          <mxGeometry y="90" width="180" height="30" as="geometry" />
        </mxCell>
        <mxCell id="OICg_AFk18oYCSIzm3PE-135" value="" style="shape=partialRectangle;connectable=0;fillColor=none;top=0;left=0;bottom=0;right=0;editable=1;overflow=hidden;" parent="OICg_AFk18oYCSIzm3PE-134" vertex="1">
          <mxGeometry width="30" height="30" as="geometry" />
        </mxCell>
        <mxCell id="OICg_AFk18oYCSIzm3PE-136" value="" style="shape=partialRectangle;connectable=0;fillColor=none;top=0;left=0;bottom=0;right=0;align=left;spacingLeft=6;overflow=hidden;" parent="OICg_AFk18oYCSIzm3PE-134" vertex="1">
          <mxGeometry x="30" width="150" height="30" as="geometry" />
        </mxCell>
        <mxCell id="OICg_AFk18oYCSIzm3PE-137" value="" style="shape=partialRectangle;collapsible=0;dropTarget=0;pointerEvents=0;fillColor=none;top=0;left=0;bottom=0;right=0;points=[[0,0.5],[1,0.5]];portConstraint=eastwest;" parent="OICg_AFk18oYCSIzm3PE-127" vertex="1">
          <mxGeometry y="120" width="180" height="30" as="geometry" />
        </mxCell>
        <mxCell id="OICg_AFk18oYCSIzm3PE-138" value="" style="shape=partialRectangle;connectable=0;fillColor=none;top=0;left=0;bottom=0;right=0;editable=1;overflow=hidden;" parent="OICg_AFk18oYCSIzm3PE-137" vertex="1">
          <mxGeometry width="30" height="30" as="geometry" />
        </mxCell>
        <mxCell id="OICg_AFk18oYCSIzm3PE-139" value="" style="shape=partialRectangle;connectable=0;fillColor=none;top=0;left=0;bottom=0;right=0;align=left;spacingLeft=6;overflow=hidden;" parent="OICg_AFk18oYCSIzm3PE-137" vertex="1">
          <mxGeometry x="30" width="150" height="30" as="geometry" />
        </mxCell>
        <mxCell id="OICg_AFk18oYCSIzm3PE-140" value="User" style="shape=table;startSize=30;container=1;collapsible=1;childLayout=tableLayout;fixedRows=1;rowLines=0;fontStyle=1;align=center;resizeLast=1;" parent="1" vertex="1">
          <mxGeometry x="520" y="1140" width="290" height="160" as="geometry" />
        </mxCell>
        <mxCell id="OICg_AFk18oYCSIzm3PE-141" value="" style="shape=partialRectangle;collapsible=0;dropTarget=0;pointerEvents=0;fillColor=none;top=0;left=0;bottom=1;right=0;points=[[0,0.5],[1,0.5]];portConstraint=eastwest;" parent="OICg_AFk18oYCSIzm3PE-140" vertex="1">
          <mxGeometry y="30" width="290" height="30" as="geometry" />
        </mxCell>
        <mxCell id="OICg_AFk18oYCSIzm3PE-142" value="PK" style="shape=partialRectangle;connectable=0;fillColor=none;top=0;left=0;bottom=0;right=0;fontStyle=1;overflow=hidden;" parent="OICg_AFk18oYCSIzm3PE-141" vertex="1">
          <mxGeometry width="30" height="30" as="geometry" />
        </mxCell>
        <mxCell id="OICg_AFk18oYCSIzm3PE-143" value="userID int NOT NULL" style="shape=partialRectangle;connectable=0;fillColor=none;top=0;left=0;bottom=0;right=0;align=left;spacingLeft=6;fontStyle=5;overflow=hidden;" parent="OICg_AFk18oYCSIzm3PE-141" vertex="1">
          <mxGeometry x="30" width="260" height="30" as="geometry" />
        </mxCell>
        <mxCell id="OICg_AFk18oYCSIzm3PE-150" value="" style="shape=partialRectangle;collapsible=0;dropTarget=0;pointerEvents=0;fillColor=none;top=0;left=0;bottom=0;right=0;points=[[0,0.5],[1,0.5]];portConstraint=eastwest;" parent="OICg_AFk18oYCSIzm3PE-140" vertex="1">
          <mxGeometry y="60" width="290" height="30" as="geometry" />
        </mxCell>
        <mxCell id="OICg_AFk18oYCSIzm3PE-151" value="FK" style="shape=partialRectangle;connectable=0;fillColor=none;top=0;left=0;bottom=0;right=0;editable=1;overflow=hidden;fontStyle=1" parent="OICg_AFk18oYCSIzm3PE-150" vertex="1">
          <mxGeometry width="30" height="30" as="geometry" />
        </mxCell>
        <mxCell id="OICg_AFk18oYCSIzm3PE-152" value="regionID int NOT NULL" style="shape=partialRectangle;connectable=0;fillColor=none;top=0;left=0;bottom=0;right=0;align=left;spacingLeft=6;overflow=hidden;" parent="OICg_AFk18oYCSIzm3PE-150" vertex="1">
          <mxGeometry x="30" width="260" height="30" as="geometry" />
        </mxCell>
        <mxCell id="OICg_AFk18oYCSIzm3PE-144" value="" style="shape=partialRectangle;collapsible=0;dropTarget=0;pointerEvents=0;fillColor=none;top=0;left=0;bottom=0;right=0;points=[[0,0.5],[1,0.5]];portConstraint=eastwest;" parent="OICg_AFk18oYCSIzm3PE-140" vertex="1">
          <mxGeometry y="90" width="290" height="30" as="geometry" />
        </mxCell>
        <mxCell id="OICg_AFk18oYCSIzm3PE-145" value="" style="shape=partialRectangle;connectable=0;fillColor=none;top=0;left=0;bottom=0;right=0;editable=1;overflow=hidden;" parent="OICg_AFk18oYCSIzm3PE-144" vertex="1">
          <mxGeometry width="30" height="30" as="geometry" />
        </mxCell>
        <mxCell id="OICg_AFk18oYCSIzm3PE-146" value="UserName string NOT NULL" style="shape=partialRectangle;connectable=0;fillColor=none;top=0;left=0;bottom=0;right=0;align=left;spacingLeft=6;overflow=hidden;" parent="OICg_AFk18oYCSIzm3PE-144" vertex="1">
          <mxGeometry x="30" width="260" height="30" as="geometry" />
        </mxCell>
        <mxCell id="OICg_AFk18oYCSIzm3PE-147" value="" style="shape=partialRectangle;collapsible=0;dropTarget=0;pointerEvents=0;fillColor=none;top=0;left=0;bottom=0;right=0;points=[[0,0.5],[1,0.5]];portConstraint=eastwest;" parent="OICg_AFk18oYCSIzm3PE-140" vertex="1">
          <mxGeometry y="120" width="290" height="30" as="geometry" />
        </mxCell>
        <mxCell id="OICg_AFk18oYCSIzm3PE-148" value="" style="shape=partialRectangle;connectable=0;fillColor=none;top=0;left=0;bottom=0;right=0;editable=1;overflow=hidden;" parent="OICg_AFk18oYCSIzm3PE-147" vertex="1">
          <mxGeometry width="30" height="30" as="geometry" />
        </mxCell>
        <mxCell id="OICg_AFk18oYCSIzm3PE-149" value="PreferredRegionName string NOT NULL" style="shape=partialRectangle;connectable=0;fillColor=none;top=0;left=0;bottom=0;right=0;align=left;spacingLeft=6;overflow=hidden;" parent="OICg_AFk18oYCSIzm3PE-147" vertex="1">
          <mxGeometry x="30" width="260" height="30" as="geometry" />
        </mxCell>
        <mxCell id="OICg_AFk18oYCSIzm3PE-153" value="Category" style="shape=table;startSize=30;container=1;collapsible=1;childLayout=tableLayout;fixedRows=1;rowLines=0;fontStyle=1;align=center;resizeLast=1;" parent="1" vertex="1">
          <mxGeometry x="520" y="1400" width="240" height="160" as="geometry" />
        </mxCell>
        <mxCell id="OICg_AFk18oYCSIzm3PE-154" value="" style="shape=partialRectangle;collapsible=0;dropTarget=0;pointerEvents=0;fillColor=none;top=0;left=0;bottom=1;right=0;points=[[0,0.5],[1,0.5]];portConstraint=eastwest;" parent="OICg_AFk18oYCSIzm3PE-153" vertex="1">
          <mxGeometry y="30" width="240" height="30" as="geometry" />
        </mxCell>
        <mxCell id="OICg_AFk18oYCSIzm3PE-155" value="PK" style="shape=partialRectangle;connectable=0;fillColor=none;top=0;left=0;bottom=0;right=0;fontStyle=1;overflow=hidden;" parent="OICg_AFk18oYCSIzm3PE-154" vertex="1">
          <mxGeometry width="30" height="30" as="geometry" />
        </mxCell>
        <mxCell id="OICg_AFk18oYCSIzm3PE-156" value="categoryID int NOT NULL" style="shape=partialRectangle;connectable=0;fillColor=none;top=0;left=0;bottom=0;right=0;align=left;spacingLeft=6;fontStyle=5;overflow=hidden;" parent="OICg_AFk18oYCSIzm3PE-154" vertex="1">
          <mxGeometry x="30" width="210" height="30" as="geometry" />
        </mxCell>
        <mxCell id="OICg_AFk18oYCSIzm3PE-160" value="" style="shape=partialRectangle;collapsible=0;dropTarget=0;pointerEvents=0;fillColor=none;top=0;left=0;bottom=0;right=0;points=[[0,0.5],[1,0.5]];portConstraint=eastwest;" parent="OICg_AFk18oYCSIzm3PE-153" vertex="1">
          <mxGeometry y="60" width="240" height="30" as="geometry" />
        </mxCell>
        <mxCell id="OICg_AFk18oYCSIzm3PE-161" value="FK" style="shape=partialRectangle;connectable=0;fillColor=none;top=0;left=0;bottom=0;right=0;editable=1;overflow=hidden;fontStyle=1" parent="OICg_AFk18oYCSIzm3PE-160" vertex="1">
          <mxGeometry width="30" height="30" as="geometry" />
        </mxCell>
        <mxCell id="OICg_AFk18oYCSIzm3PE-162" value="postID int NOT NULL" style="shape=partialRectangle;connectable=0;fillColor=none;top=0;left=0;bottom=0;right=0;align=left;spacingLeft=6;overflow=hidden;fontStyle=5" parent="OICg_AFk18oYCSIzm3PE-160" vertex="1">
          <mxGeometry x="30" width="210" height="30" as="geometry" />
        </mxCell>
        <mxCell id="OICg_AFk18oYCSIzm3PE-157" value="" style="shape=partialRectangle;collapsible=0;dropTarget=0;pointerEvents=0;fillColor=none;top=0;left=0;bottom=0;right=0;points=[[0,0.5],[1,0.5]];portConstraint=eastwest;" parent="OICg_AFk18oYCSIzm3PE-153" vertex="1">
          <mxGeometry y="90" width="240" height="30" as="geometry" />
        </mxCell>
        <mxCell id="OICg_AFk18oYCSIzm3PE-158" value="" style="shape=partialRectangle;connectable=0;fillColor=none;top=0;left=0;bottom=0;right=0;editable=1;overflow=hidden;" parent="OICg_AFk18oYCSIzm3PE-157" vertex="1">
          <mxGeometry width="30" height="30" as="geometry" />
        </mxCell>
        <mxCell id="OICg_AFk18oYCSIzm3PE-159" value="CategoryName string NOT NULL" style="shape=partialRectangle;connectable=0;fillColor=none;top=0;left=0;bottom=0;right=0;align=left;spacingLeft=6;overflow=hidden;" parent="OICg_AFk18oYCSIzm3PE-157" vertex="1">
          <mxGeometry x="30" width="210" height="30" as="geometry" />
        </mxCell>
        <mxCell id="OICg_AFk18oYCSIzm3PE-163" value="" style="shape=partialRectangle;collapsible=0;dropTarget=0;pointerEvents=0;fillColor=none;top=0;left=0;bottom=0;right=0;points=[[0,0.5],[1,0.5]];portConstraint=eastwest;" parent="OICg_AFk18oYCSIzm3PE-153" vertex="1">
          <mxGeometry y="120" width="240" height="30" as="geometry" />
        </mxCell>
        <mxCell id="OICg_AFk18oYCSIzm3PE-164" value="" style="shape=partialRectangle;connectable=0;fillColor=none;top=0;left=0;bottom=0;right=0;editable=1;overflow=hidden;" parent="OICg_AFk18oYCSIzm3PE-163" vertex="1">
          <mxGeometry width="30" height="30" as="geometry" />
        </mxCell>
        <mxCell id="OICg_AFk18oYCSIzm3PE-165" value="PostTitle string NOT NULL" style="shape=partialRectangle;connectable=0;fillColor=none;top=0;left=0;bottom=0;right=0;align=left;spacingLeft=6;overflow=hidden;" parent="OICg_AFk18oYCSIzm3PE-163" vertex="1">
          <mxGeometry x="30" width="210" height="30" as="geometry" />
        </mxCell>
        <mxCell id="OICg_AFk18oYCSIzm3PE-166" value="Post" style="shape=table;startSize=30;container=1;collapsible=1;childLayout=tableLayout;fixedRows=1;rowLines=0;fontStyle=1;align=center;resizeLast=1;" parent="1" vertex="1">
          <mxGeometry x="147.5" y="1350" width="232.5" height="280" as="geometry" />
        </mxCell>
        <mxCell id="OICg_AFk18oYCSIzm3PE-322" value="" style="shape=partialRectangle;collapsible=0;dropTarget=0;pointerEvents=0;fillColor=none;top=0;left=0;bottom=1;right=0;points=[[0,0.5],[1,0.5]];portConstraint=eastwest;" parent="OICg_AFk18oYCSIzm3PE-166" vertex="1">
          <mxGeometry y="30" width="232.5" height="30" as="geometry" />
        </mxCell>
        <mxCell id="OICg_AFk18oYCSIzm3PE-323" value="PK" style="shape=partialRectangle;connectable=0;fillColor=none;top=0;left=0;bottom=0;right=0;fontStyle=1;overflow=hidden;" parent="OICg_AFk18oYCSIzm3PE-322" vertex="1">
          <mxGeometry width="30" height="30" as="geometry" />
        </mxCell>
        <mxCell id="OICg_AFk18oYCSIzm3PE-324" value="postID int NOT NULL" style="shape=partialRectangle;connectable=0;fillColor=none;top=0;left=0;bottom=0;right=0;align=left;spacingLeft=6;fontStyle=5;overflow=hidden;" parent="OICg_AFk18oYCSIzm3PE-322" vertex="1">
          <mxGeometry x="30" width="202.5" height="30" as="geometry" />
        </mxCell>
        <mxCell id="OICg_AFk18oYCSIzm3PE-167" value="" style="shape=partialRectangle;collapsible=0;dropTarget=0;pointerEvents=0;fillColor=none;top=0;left=0;bottom=1;right=0;points=[[0,0.5],[1,0.5]];portConstraint=eastwest;" parent="OICg_AFk18oYCSIzm3PE-166" vertex="1">
          <mxGeometry y="60" width="232.5" height="30" as="geometry" />
        </mxCell>
        <mxCell id="OICg_AFk18oYCSIzm3PE-168" value="FK" style="shape=partialRectangle;connectable=0;fillColor=none;top=0;left=0;bottom=0;right=0;fontStyle=1;overflow=hidden;" parent="OICg_AFk18oYCSIzm3PE-167" vertex="1">
          <mxGeometry width="30" height="30" as="geometry" />
        </mxCell>
        <mxCell id="OICg_AFk18oYCSIzm3PE-169" value="userID int NOT NULL" style="shape=partialRectangle;connectable=0;fillColor=none;top=0;left=0;bottom=0;right=0;align=left;spacingLeft=6;fontStyle=5;overflow=hidden;" parent="OICg_AFk18oYCSIzm3PE-167" vertex="1">
          <mxGeometry x="30" width="202.5" height="30" as="geometry" />
        </mxCell>
        <mxCell id="OICg_AFk18oYCSIzm3PE-176" value="" style="shape=partialRectangle;collapsible=0;dropTarget=0;pointerEvents=0;fillColor=none;top=0;left=0;bottom=0;right=0;points=[[0,0.5],[1,0.5]];portConstraint=eastwest;" parent="OICg_AFk18oYCSIzm3PE-166" vertex="1">
          <mxGeometry y="90" width="232.5" height="30" as="geometry" />
        </mxCell>
        <mxCell id="OICg_AFk18oYCSIzm3PE-177" value="FK" style="shape=partialRectangle;connectable=0;fillColor=none;top=0;left=0;bottom=0;right=0;editable=1;overflow=hidden;fontStyle=1" parent="OICg_AFk18oYCSIzm3PE-176" vertex="1">
          <mxGeometry width="30" height="30" as="geometry" />
        </mxCell>
        <mxCell id="OICg_AFk18oYCSIzm3PE-178" value="regionID int NOT NULL" style="shape=partialRectangle;connectable=0;fillColor=none;top=0;left=0;bottom=0;right=0;align=left;spacingLeft=6;overflow=hidden;fontStyle=5" parent="OICg_AFk18oYCSIzm3PE-176" vertex="1">
          <mxGeometry x="30" width="202.5" height="30" as="geometry" />
        </mxCell>
        <mxCell id="OICg_AFk18oYCSIzm3PE-170" value="" style="shape=partialRectangle;collapsible=0;dropTarget=0;pointerEvents=0;fillColor=none;top=0;left=0;bottom=0;right=0;points=[[0,0.5],[1,0.5]];portConstraint=eastwest;" parent="OICg_AFk18oYCSIzm3PE-166" vertex="1">
          <mxGeometry y="120" width="232.5" height="30" as="geometry" />
        </mxCell>
        <mxCell id="OICg_AFk18oYCSIzm3PE-171" value="" style="shape=partialRectangle;connectable=0;fillColor=none;top=0;left=0;bottom=0;right=0;editable=1;overflow=hidden;" parent="OICg_AFk18oYCSIzm3PE-170" vertex="1">
          <mxGeometry width="30" height="30" as="geometry" />
        </mxCell>
        <mxCell id="OICg_AFk18oYCSIzm3PE-172" value="Title string NOT NULL" style="shape=partialRectangle;connectable=0;fillColor=none;top=0;left=0;bottom=0;right=0;align=left;spacingLeft=6;overflow=hidden;" parent="OICg_AFk18oYCSIzm3PE-170" vertex="1">
          <mxGeometry x="30" width="202.5" height="30" as="geometry" />
        </mxCell>
        <mxCell id="OICg_AFk18oYCSIzm3PE-173" value="" style="shape=partialRectangle;collapsible=0;dropTarget=0;pointerEvents=0;fillColor=none;top=0;left=0;bottom=0;right=0;points=[[0,0.5],[1,0.5]];portConstraint=eastwest;" parent="OICg_AFk18oYCSIzm3PE-166" vertex="1">
          <mxGeometry y="150" width="232.5" height="30" as="geometry" />
        </mxCell>
        <mxCell id="OICg_AFk18oYCSIzm3PE-174" value="" style="shape=partialRectangle;connectable=0;fillColor=none;top=0;left=0;bottom=0;right=0;editable=1;overflow=hidden;" parent="OICg_AFk18oYCSIzm3PE-173" vertex="1">
          <mxGeometry width="30" height="30" as="geometry" />
        </mxCell>
        <mxCell id="OICg_AFk18oYCSIzm3PE-175" value="UserName string NOT NULL" style="shape=partialRectangle;connectable=0;fillColor=none;top=0;left=0;bottom=0;right=0;align=left;spacingLeft=6;overflow=hidden;" parent="OICg_AFk18oYCSIzm3PE-173" vertex="1">
          <mxGeometry x="30" width="202.5" height="30" as="geometry" />
        </mxCell>
        <mxCell id="aMtoXORfHzRGaOY2vuZP-148" value="" style="shape=partialRectangle;collapsible=0;dropTarget=0;pointerEvents=0;fillColor=none;top=0;left=0;bottom=0;right=0;points=[[0,0.5],[1,0.5]];portConstraint=eastwest;" vertex="1" parent="OICg_AFk18oYCSIzm3PE-166">
          <mxGeometry y="180" width="232.5" height="30" as="geometry" />
        </mxCell>
        <mxCell id="aMtoXORfHzRGaOY2vuZP-149" value="" style="shape=partialRectangle;connectable=0;fillColor=none;top=0;left=0;bottom=0;right=0;editable=1;overflow=hidden;" vertex="1" parent="aMtoXORfHzRGaOY2vuZP-148">
          <mxGeometry width="30" height="30" as="geometry" />
        </mxCell>
        <mxCell id="aMtoXORfHzRGaOY2vuZP-150" value="PostLocation string NOT NULL" style="shape=partialRectangle;connectable=0;fillColor=none;top=0;left=0;bottom=0;right=0;align=left;spacingLeft=6;overflow=hidden;" vertex="1" parent="aMtoXORfHzRGaOY2vuZP-148">
          <mxGeometry x="30" width="202.5" height="30" as="geometry" />
        </mxCell>
        <mxCell id="OICg_AFk18oYCSIzm3PE-279" value="" style="shape=partialRectangle;collapsible=0;dropTarget=0;pointerEvents=0;fillColor=none;top=0;left=0;bottom=0;right=0;points=[[0,0.5],[1,0.5]];portConstraint=eastwest;" parent="OICg_AFk18oYCSIzm3PE-166" vertex="1">
          <mxGeometry y="210" width="232.5" height="30" as="geometry" />
        </mxCell>
        <mxCell id="OICg_AFk18oYCSIzm3PE-280" value="" style="shape=partialRectangle;connectable=0;fillColor=none;top=0;left=0;bottom=0;right=0;editable=1;overflow=hidden;" parent="OICg_AFk18oYCSIzm3PE-279" vertex="1">
          <mxGeometry width="30" height="30" as="geometry" />
        </mxCell>
        <mxCell id="OICg_AFk18oYCSIzm3PE-281" value="Text string NOT NULL" style="shape=partialRectangle;connectable=0;fillColor=none;top=0;left=0;bottom=0;right=0;align=left;spacingLeft=6;overflow=hidden;" parent="OICg_AFk18oYCSIzm3PE-279" vertex="1">
          <mxGeometry x="30" width="202.5" height="30" as="geometry" />
        </mxCell>
        <mxCell id="aMtoXORfHzRGaOY2vuZP-68" value="" style="endArrow=none;html=1;entryX=1;entryY=0.033;entryDx=0;entryDy=0;entryPerimeter=0;" edge="1" parent="OICg_AFk18oYCSIzm3PE-166" target="OICg_AFk18oYCSIzm3PE-170">
          <mxGeometry width="50" height="50" relative="1" as="geometry">
            <mxPoint x="1.5" y="121" as="sourcePoint" />
            <mxPoint x="252.5" y="-70" as="targetPoint" />
          </mxGeometry>
        </mxCell>
        <mxCell id="OICg_AFk18oYCSIzm3PE-179" value="Soccer League&amp;nbsp;" style="text;html=1;strokeColor=none;fillColor=none;align=center;verticalAlign=middle;whiteSpace=wrap;rounded=0;" parent="1" vertex="1">
          <mxGeometry x="37.5" y="2240" width="110" height="20" as="geometry" />
        </mxCell>
        <mxCell id="OICg_AFk18oYCSIzm3PE-180" value="Teams" style="shape=table;startSize=30;container=1;collapsible=1;childLayout=tableLayout;fixedRows=1;rowLines=0;fontStyle=1;align=center;resizeLast=1;" parent="1" vertex="1">
          <mxGeometry x="630" y="2610" width="180" height="160" as="geometry" />
        </mxCell>
        <mxCell id="OICg_AFk18oYCSIzm3PE-181" value="" style="shape=partialRectangle;collapsible=0;dropTarget=0;pointerEvents=0;fillColor=none;top=0;left=0;bottom=1;right=0;points=[[0,0.5],[1,0.5]];portConstraint=eastwest;" parent="OICg_AFk18oYCSIzm3PE-180" vertex="1">
          <mxGeometry y="30" width="180" height="30" as="geometry" />
        </mxCell>
        <mxCell id="OICg_AFk18oYCSIzm3PE-182" value="PK" style="shape=partialRectangle;connectable=0;fillColor=none;top=0;left=0;bottom=0;right=0;fontStyle=1;overflow=hidden;" parent="OICg_AFk18oYCSIzm3PE-181" vertex="1">
          <mxGeometry width="30" height="30" as="geometry" />
        </mxCell>
        <mxCell id="OICg_AFk18oYCSIzm3PE-183" value="teamID int NOT NULL" style="shape=partialRectangle;connectable=0;fillColor=none;top=0;left=0;bottom=0;right=0;align=left;spacingLeft=6;fontStyle=5;overflow=hidden;" parent="OICg_AFk18oYCSIzm3PE-181" vertex="1">
          <mxGeometry x="30" width="150" height="30" as="geometry" />
        </mxCell>
        <mxCell id="OICg_AFk18oYCSIzm3PE-184" value="" style="shape=partialRectangle;collapsible=0;dropTarget=0;pointerEvents=0;fillColor=none;top=0;left=0;bottom=0;right=0;points=[[0,0.5],[1,0.5]];portConstraint=eastwest;" parent="OICg_AFk18oYCSIzm3PE-180" vertex="1">
          <mxGeometry y="60" width="180" height="30" as="geometry" />
        </mxCell>
        <mxCell id="OICg_AFk18oYCSIzm3PE-185" value="" style="shape=partialRectangle;connectable=0;fillColor=none;top=0;left=0;bottom=0;right=0;editable=1;overflow=hidden;" parent="OICg_AFk18oYCSIzm3PE-184" vertex="1">
          <mxGeometry width="30" height="30" as="geometry" />
        </mxCell>
        <mxCell id="OICg_AFk18oYCSIzm3PE-186" value="Name string NOT NULL" style="shape=partialRectangle;connectable=0;fillColor=none;top=0;left=0;bottom=0;right=0;align=left;spacingLeft=6;overflow=hidden;" parent="OICg_AFk18oYCSIzm3PE-184" vertex="1">
          <mxGeometry x="30" width="150" height="30" as="geometry" />
        </mxCell>
        <mxCell id="OICg_AFk18oYCSIzm3PE-187" value="" style="shape=partialRectangle;collapsible=0;dropTarget=0;pointerEvents=0;fillColor=none;top=0;left=0;bottom=0;right=0;points=[[0,0.5],[1,0.5]];portConstraint=eastwest;" parent="OICg_AFk18oYCSIzm3PE-180" vertex="1">
          <mxGeometry y="90" width="180" height="30" as="geometry" />
        </mxCell>
        <mxCell id="OICg_AFk18oYCSIzm3PE-188" value="" style="shape=partialRectangle;connectable=0;fillColor=none;top=0;left=0;bottom=0;right=0;editable=1;overflow=hidden;" parent="OICg_AFk18oYCSIzm3PE-187" vertex="1">
          <mxGeometry width="30" height="30" as="geometry" />
        </mxCell>
        <mxCell id="OICg_AFk18oYCSIzm3PE-189" value="TotalWins int NOT NULL" style="shape=partialRectangle;connectable=0;fillColor=none;top=0;left=0;bottom=0;right=0;align=left;spacingLeft=6;overflow=hidden;" parent="OICg_AFk18oYCSIzm3PE-187" vertex="1">
          <mxGeometry x="30" width="150" height="30" as="geometry" />
        </mxCell>
        <mxCell id="OICg_AFk18oYCSIzm3PE-190" value="" style="shape=partialRectangle;collapsible=0;dropTarget=0;pointerEvents=0;fillColor=none;top=0;left=0;bottom=0;right=0;points=[[0,0.5],[1,0.5]];portConstraint=eastwest;" parent="OICg_AFk18oYCSIzm3PE-180" vertex="1">
          <mxGeometry y="120" width="180" height="30" as="geometry" />
        </mxCell>
        <mxCell id="OICg_AFk18oYCSIzm3PE-191" value="" style="shape=partialRectangle;connectable=0;fillColor=none;top=0;left=0;bottom=0;right=0;editable=1;overflow=hidden;" parent="OICg_AFk18oYCSIzm3PE-190" vertex="1">
          <mxGeometry width="30" height="30" as="geometry" />
        </mxCell>
        <mxCell id="OICg_AFk18oYCSIzm3PE-192" value="Ranking int NOT NULL" style="shape=partialRectangle;connectable=0;fillColor=none;top=0;left=0;bottom=0;right=0;align=left;spacingLeft=6;overflow=hidden;" parent="OICg_AFk18oYCSIzm3PE-190" vertex="1">
          <mxGeometry x="30" width="150" height="30" as="geometry" />
        </mxCell>
        <mxCell id="OICg_AFk18oYCSIzm3PE-193" value="Players" style="shape=table;startSize=30;container=1;collapsible=1;childLayout=tableLayout;fixedRows=1;rowLines=0;fontStyle=1;align=center;resizeLast=1;" parent="1" vertex="1">
          <mxGeometry x="540" y="2280" width="270" height="210" as="geometry" />
        </mxCell>
        <mxCell id="aMtoXORfHzRGaOY2vuZP-107" value="" style="shape=partialRectangle;collapsible=0;dropTarget=0;pointerEvents=0;fillColor=none;top=0;left=0;bottom=1;right=0;points=[[0,0.5],[1,0.5]];portConstraint=eastwest;" vertex="1" parent="OICg_AFk18oYCSIzm3PE-193">
          <mxGeometry y="30" width="270" height="30" as="geometry" />
        </mxCell>
        <mxCell id="aMtoXORfHzRGaOY2vuZP-108" value="PK" style="shape=partialRectangle;connectable=0;fillColor=none;top=0;left=0;bottom=0;right=0;fontStyle=1;overflow=hidden;" vertex="1" parent="aMtoXORfHzRGaOY2vuZP-107">
          <mxGeometry width="30" height="30" as="geometry" />
        </mxCell>
        <mxCell id="aMtoXORfHzRGaOY2vuZP-109" value="playerID int NOT NULL" style="shape=partialRectangle;connectable=0;fillColor=none;top=0;left=0;bottom=0;right=0;align=left;spacingLeft=6;fontStyle=5;overflow=hidden;" vertex="1" parent="aMtoXORfHzRGaOY2vuZP-107">
          <mxGeometry x="30" width="240" height="30" as="geometry" />
        </mxCell>
        <mxCell id="OICg_AFk18oYCSIzm3PE-194" value="" style="shape=partialRectangle;collapsible=0;dropTarget=0;pointerEvents=0;fillColor=none;top=0;left=0;bottom=1;right=0;points=[[0,0.5],[1,0.5]];portConstraint=eastwest;" parent="OICg_AFk18oYCSIzm3PE-193" vertex="1">
          <mxGeometry y="60" width="270" height="30" as="geometry" />
        </mxCell>
        <mxCell id="OICg_AFk18oYCSIzm3PE-195" value="FK" style="shape=partialRectangle;connectable=0;fillColor=none;top=0;left=0;bottom=0;right=0;fontStyle=1;overflow=hidden;" parent="OICg_AFk18oYCSIzm3PE-194" vertex="1">
          <mxGeometry width="30" height="30" as="geometry" />
        </mxCell>
        <mxCell id="OICg_AFk18oYCSIzm3PE-196" value="teamID int NOT NULL" style="shape=partialRectangle;connectable=0;fillColor=none;top=0;left=0;bottom=0;right=0;align=left;spacingLeft=6;fontStyle=5;overflow=hidden;" parent="OICg_AFk18oYCSIzm3PE-194" vertex="1">
          <mxGeometry x="30" width="240" height="30" as="geometry" />
        </mxCell>
        <mxCell id="OICg_AFk18oYCSIzm3PE-197" value="" style="shape=partialRectangle;collapsible=0;dropTarget=0;pointerEvents=0;fillColor=none;top=0;left=0;bottom=0;right=0;points=[[0,0.5],[1,0.5]];portConstraint=eastwest;" parent="OICg_AFk18oYCSIzm3PE-193" vertex="1">
          <mxGeometry y="90" width="270" height="30" as="geometry" />
        </mxCell>
        <mxCell id="OICg_AFk18oYCSIzm3PE-198" value="" style="shape=partialRectangle;connectable=0;fillColor=none;top=0;left=0;bottom=0;right=0;editable=1;overflow=hidden;" parent="OICg_AFk18oYCSIzm3PE-197" vertex="1">
          <mxGeometry width="30" height="30" as="geometry" />
        </mxCell>
        <mxCell id="OICg_AFk18oYCSIzm3PE-199" value="PlayerName string NOT NULL" style="shape=partialRectangle;connectable=0;fillColor=none;top=0;left=0;bottom=0;right=0;align=left;spacingLeft=6;overflow=hidden;" parent="OICg_AFk18oYCSIzm3PE-197" vertex="1">
          <mxGeometry x="30" width="240" height="30" as="geometry" />
        </mxCell>
        <mxCell id="OICg_AFk18oYCSIzm3PE-200" value="" style="shape=partialRectangle;collapsible=0;dropTarget=0;pointerEvents=0;fillColor=none;top=0;left=0;bottom=0;right=0;points=[[0,0.5],[1,0.5]];portConstraint=eastwest;" parent="OICg_AFk18oYCSIzm3PE-193" vertex="1">
          <mxGeometry y="120" width="270" height="30" as="geometry" />
        </mxCell>
        <mxCell id="OICg_AFk18oYCSIzm3PE-201" value="" style="shape=partialRectangle;connectable=0;fillColor=none;top=0;left=0;bottom=0;right=0;editable=1;overflow=hidden;" parent="OICg_AFk18oYCSIzm3PE-200" vertex="1">
          <mxGeometry width="30" height="30" as="geometry" />
        </mxCell>
        <mxCell id="OICg_AFk18oYCSIzm3PE-202" value="TeamName string NOT NULL" style="shape=partialRectangle;connectable=0;fillColor=none;top=0;left=0;bottom=0;right=0;align=left;spacingLeft=6;overflow=hidden;" parent="OICg_AFk18oYCSIzm3PE-200" vertex="1">
          <mxGeometry x="30" width="240" height="30" as="geometry" />
        </mxCell>
        <mxCell id="OICg_AFk18oYCSIzm3PE-287" value="" style="shape=partialRectangle;collapsible=0;dropTarget=0;pointerEvents=0;fillColor=none;top=0;left=0;bottom=0;right=0;points=[[0,0.5],[1,0.5]];portConstraint=eastwest;" parent="OICg_AFk18oYCSIzm3PE-193" vertex="1">
          <mxGeometry y="150" width="270" height="30" as="geometry" />
        </mxCell>
        <mxCell id="OICg_AFk18oYCSIzm3PE-288" value="" style="shape=partialRectangle;connectable=0;fillColor=none;top=0;left=0;bottom=0;right=0;editable=1;overflow=hidden;" parent="OICg_AFk18oYCSIzm3PE-287" vertex="1">
          <mxGeometry width="30" height="30" as="geometry" />
        </mxCell>
        <mxCell id="OICg_AFk18oYCSIzm3PE-289" value="" style="shape=partialRectangle;connectable=0;fillColor=none;top=0;left=0;bottom=0;right=0;align=left;spacingLeft=6;overflow=hidden;" parent="OICg_AFk18oYCSIzm3PE-287" vertex="1">
          <mxGeometry x="30" width="240" height="30" as="geometry" />
        </mxCell>
        <mxCell id="OICg_AFk18oYCSIzm3PE-203" value="" style="shape=partialRectangle;collapsible=0;dropTarget=0;pointerEvents=0;fillColor=none;top=0;left=0;bottom=0;right=0;points=[[0,0.5],[1,0.5]];portConstraint=eastwest;" parent="OICg_AFk18oYCSIzm3PE-193" vertex="1">
          <mxGeometry y="180" width="270" height="30" as="geometry" />
        </mxCell>
        <mxCell id="OICg_AFk18oYCSIzm3PE-204" value="" style="shape=partialRectangle;connectable=0;fillColor=none;top=0;left=0;bottom=0;right=0;editable=1;overflow=hidden;" parent="OICg_AFk18oYCSIzm3PE-203" vertex="1">
          <mxGeometry width="30" height="30" as="geometry" />
        </mxCell>
        <mxCell id="OICg_AFk18oYCSIzm3PE-205" value="" style="shape=partialRectangle;connectable=0;fillColor=none;top=0;left=0;bottom=0;right=0;align=left;spacingLeft=6;overflow=hidden;" parent="OICg_AFk18oYCSIzm3PE-203" vertex="1">
          <mxGeometry x="30" width="240" height="30" as="geometry" />
        </mxCell>
        <mxCell id="OICg_AFk18oYCSIzm3PE-219" value="Matches" style="shape=table;startSize=30;container=1;collapsible=1;childLayout=tableLayout;fixedRows=1;rowLines=0;fontStyle=1;align=center;resizeLast=1;" parent="1" vertex="1">
          <mxGeometry x="250" y="2510" width="255" height="370" as="geometry" />
        </mxCell>
        <mxCell id="aMtoXORfHzRGaOY2vuZP-123" value="" style="shape=partialRectangle;collapsible=0;dropTarget=0;pointerEvents=0;fillColor=none;top=0;left=0;bottom=1;right=0;points=[[0,0.5],[1,0.5]];portConstraint=eastwest;" vertex="1" parent="OICg_AFk18oYCSIzm3PE-219">
          <mxGeometry y="30" width="255" height="30" as="geometry" />
        </mxCell>
        <mxCell id="aMtoXORfHzRGaOY2vuZP-124" value="PK" style="shape=partialRectangle;connectable=0;fillColor=none;top=0;left=0;bottom=0;right=0;fontStyle=1;overflow=hidden;" vertex="1" parent="aMtoXORfHzRGaOY2vuZP-123">
          <mxGeometry width="35" height="30" as="geometry" />
        </mxCell>
        <mxCell id="aMtoXORfHzRGaOY2vuZP-125" value="matchID int NOT NULL" style="shape=partialRectangle;connectable=0;fillColor=none;top=0;left=0;bottom=0;right=0;align=left;spacingLeft=6;fontStyle=5;overflow=hidden;" vertex="1" parent="aMtoXORfHzRGaOY2vuZP-123">
          <mxGeometry x="35" width="220" height="30" as="geometry" />
        </mxCell>
        <mxCell id="aMtoXORfHzRGaOY2vuZP-110" value="" style="shape=partialRectangle;collapsible=0;dropTarget=0;pointerEvents=0;fillColor=none;top=0;left=0;bottom=1;right=0;points=[[0,0.5],[1,0.5]];portConstraint=eastwest;" vertex="1" parent="OICg_AFk18oYCSIzm3PE-219">
          <mxGeometry y="60" width="255" height="30" as="geometry" />
        </mxCell>
        <mxCell id="aMtoXORfHzRGaOY2vuZP-111" value="FK" style="shape=partialRectangle;connectable=0;fillColor=none;top=0;left=0;bottom=0;right=0;fontStyle=1;overflow=hidden;" vertex="1" parent="aMtoXORfHzRGaOY2vuZP-110">
          <mxGeometry width="35" height="30" as="geometry" />
        </mxCell>
        <mxCell id="aMtoXORfHzRGaOY2vuZP-112" value="seasonID int NOT NULL" style="shape=partialRectangle;connectable=0;fillColor=none;top=0;left=0;bottom=0;right=0;align=left;spacingLeft=6;fontStyle=5;overflow=hidden;" vertex="1" parent="aMtoXORfHzRGaOY2vuZP-110">
          <mxGeometry x="35" width="220" height="30" as="geometry" />
        </mxCell>
        <mxCell id="aMtoXORfHzRGaOY2vuZP-113" value="" style="shape=partialRectangle;collapsible=0;dropTarget=0;pointerEvents=0;fillColor=none;top=0;left=0;bottom=1;right=0;points=[[0,0.5],[1,0.5]];portConstraint=eastwest;" vertex="1" parent="OICg_AFk18oYCSIzm3PE-219">
          <mxGeometry y="90" width="255" height="30" as="geometry" />
        </mxCell>
        <mxCell id="aMtoXORfHzRGaOY2vuZP-114" value="FK" style="shape=partialRectangle;connectable=0;fillColor=none;top=0;left=0;bottom=0;right=0;fontStyle=1;overflow=hidden;" vertex="1" parent="aMtoXORfHzRGaOY2vuZP-113">
          <mxGeometry width="35" height="30" as="geometry" />
        </mxCell>
        <mxCell id="aMtoXORfHzRGaOY2vuZP-115" value="hometeamID int NOT NULL" style="shape=partialRectangle;connectable=0;fillColor=none;top=0;left=0;bottom=0;right=0;align=left;spacingLeft=6;fontStyle=5;overflow=hidden;" vertex="1" parent="aMtoXORfHzRGaOY2vuZP-113">
          <mxGeometry x="35" width="220" height="30" as="geometry" />
        </mxCell>
        <mxCell id="OICg_AFk18oYCSIzm3PE-220" value="" style="shape=partialRectangle;collapsible=0;dropTarget=0;pointerEvents=0;fillColor=none;top=0;left=0;bottom=1;right=0;points=[[0,0.5],[1,0.5]];portConstraint=eastwest;" parent="OICg_AFk18oYCSIzm3PE-219" vertex="1">
          <mxGeometry y="120" width="255" height="30" as="geometry" />
        </mxCell>
        <mxCell id="OICg_AFk18oYCSIzm3PE-221" value="FK" style="shape=partialRectangle;connectable=0;fillColor=none;top=0;left=0;bottom=0;right=0;fontStyle=1;overflow=hidden;" parent="OICg_AFk18oYCSIzm3PE-220" vertex="1">
          <mxGeometry width="35" height="30" as="geometry" />
        </mxCell>
        <mxCell id="OICg_AFk18oYCSIzm3PE-222" value="awayteamID int NOT NULL" style="shape=partialRectangle;connectable=0;fillColor=none;top=0;left=0;bottom=0;right=0;align=left;spacingLeft=6;fontStyle=5;overflow=hidden;" parent="OICg_AFk18oYCSIzm3PE-220" vertex="1">
          <mxGeometry x="35" width="220" height="30" as="geometry" />
        </mxCell>
        <mxCell id="OICg_AFk18oYCSIzm3PE-306" value="" style="shape=partialRectangle;collapsible=0;dropTarget=0;pointerEvents=0;fillColor=none;top=0;left=0;bottom=1;right=0;points=[[0,0.5],[1,0.5]];portConstraint=eastwest;" parent="OICg_AFk18oYCSIzm3PE-219" vertex="1">
          <mxGeometry y="150" width="255" height="30" as="geometry" />
        </mxCell>
        <mxCell id="OICg_AFk18oYCSIzm3PE-307" value="FK" style="shape=partialRectangle;connectable=0;fillColor=none;top=0;left=0;bottom=0;right=0;fontStyle=1;overflow=hidden;" parent="OICg_AFk18oYCSIzm3PE-306" vertex="1">
          <mxGeometry width="35" height="30" as="geometry" />
        </mxCell>
        <mxCell id="OICg_AFk18oYCSIzm3PE-308" value="playerID int NOT NULL" style="shape=partialRectangle;connectable=0;fillColor=none;top=0;left=0;bottom=0;right=0;align=left;spacingLeft=6;fontStyle=5;overflow=hidden;" parent="OICg_AFk18oYCSIzm3PE-306" vertex="1">
          <mxGeometry x="35" width="220" height="30" as="geometry" />
        </mxCell>
        <mxCell id="OICg_AFk18oYCSIzm3PE-223" value="" style="shape=partialRectangle;collapsible=0;dropTarget=0;pointerEvents=0;fillColor=none;top=0;left=0;bottom=0;right=0;points=[[0,0.5],[1,0.5]];portConstraint=eastwest;" parent="OICg_AFk18oYCSIzm3PE-219" vertex="1">
          <mxGeometry y="180" width="255" height="30" as="geometry" />
        </mxCell>
        <mxCell id="OICg_AFk18oYCSIzm3PE-224" value="" style="shape=partialRectangle;connectable=0;fillColor=none;top=0;left=0;bottom=0;right=0;editable=1;overflow=hidden;" parent="OICg_AFk18oYCSIzm3PE-223" vertex="1">
          <mxGeometry width="35" height="30" as="geometry" />
        </mxCell>
        <mxCell id="OICg_AFk18oYCSIzm3PE-225" value="HomeTeamName string NOT NULL" style="shape=partialRectangle;connectable=0;fillColor=none;top=0;left=0;bottom=0;right=0;align=left;spacingLeft=6;overflow=hidden;" parent="OICg_AFk18oYCSIzm3PE-223" vertex="1">
          <mxGeometry x="35" width="220" height="30" as="geometry" />
        </mxCell>
        <mxCell id="OICg_AFk18oYCSIzm3PE-226" value="" style="shape=partialRectangle;collapsible=0;dropTarget=0;pointerEvents=0;fillColor=none;top=0;left=0;bottom=0;right=0;points=[[0,0.5],[1,0.5]];portConstraint=eastwest;" parent="OICg_AFk18oYCSIzm3PE-219" vertex="1">
          <mxGeometry y="210" width="255" height="30" as="geometry" />
        </mxCell>
        <mxCell id="OICg_AFk18oYCSIzm3PE-227" value="" style="shape=partialRectangle;connectable=0;fillColor=none;top=0;left=0;bottom=0;right=0;editable=1;overflow=hidden;" parent="OICg_AFk18oYCSIzm3PE-226" vertex="1">
          <mxGeometry width="35" height="30" as="geometry" />
        </mxCell>
        <mxCell id="OICg_AFk18oYCSIzm3PE-228" value="AwayTeamName string NOT NULL" style="shape=partialRectangle;connectable=0;fillColor=none;top=0;left=0;bottom=0;right=0;align=left;spacingLeft=6;overflow=hidden;" parent="OICg_AFk18oYCSIzm3PE-226" vertex="1">
          <mxGeometry x="35" width="220" height="30" as="geometry" />
        </mxCell>
        <mxCell id="OICg_AFk18oYCSIzm3PE-229" value="" style="shape=partialRectangle;collapsible=0;dropTarget=0;pointerEvents=0;fillColor=none;top=0;left=0;bottom=0;right=0;points=[[0,0.5],[1,0.5]];portConstraint=eastwest;" parent="OICg_AFk18oYCSIzm3PE-219" vertex="1">
          <mxGeometry y="240" width="255" height="30" as="geometry" />
        </mxCell>
        <mxCell id="OICg_AFk18oYCSIzm3PE-230" value="" style="shape=partialRectangle;connectable=0;fillColor=none;top=0;left=0;bottom=0;right=0;editable=1;overflow=hidden;" parent="OICg_AFk18oYCSIzm3PE-229" vertex="1">
          <mxGeometry width="35" height="30" as="geometry" />
        </mxCell>
        <mxCell id="OICg_AFk18oYCSIzm3PE-231" value="PlayerName string NOT NULL" style="shape=partialRectangle;connectable=0;fillColor=none;top=0;left=0;bottom=0;right=0;align=left;spacingLeft=6;overflow=hidden;" parent="OICg_AFk18oYCSIzm3PE-229" vertex="1">
          <mxGeometry x="35" width="220" height="30" as="geometry" />
        </mxCell>
        <mxCell id="OICg_AFk18oYCSIzm3PE-309" value="" style="shape=partialRectangle;collapsible=0;dropTarget=0;pointerEvents=0;fillColor=none;top=0;left=0;bottom=0;right=0;points=[[0,0.5],[1,0.5]];portConstraint=eastwest;" parent="OICg_AFk18oYCSIzm3PE-219" vertex="1">
          <mxGeometry y="270" width="255" height="30" as="geometry" />
        </mxCell>
        <mxCell id="OICg_AFk18oYCSIzm3PE-310" value="" style="shape=partialRectangle;connectable=0;fillColor=none;top=0;left=0;bottom=0;right=0;editable=1;overflow=hidden;" parent="OICg_AFk18oYCSIzm3PE-309" vertex="1">
          <mxGeometry width="35" height="30" as="geometry" />
        </mxCell>
        <mxCell id="OICg_AFk18oYCSIzm3PE-311" value="RefereeName string NOT NULL" style="shape=partialRectangle;connectable=0;fillColor=none;top=0;left=0;bottom=0;right=0;align=left;spacingLeft=6;overflow=hidden;" parent="OICg_AFk18oYCSIzm3PE-309" vertex="1">
          <mxGeometry x="35" width="220" height="30" as="geometry" />
        </mxCell>
        <mxCell id="OICg_AFk18oYCSIzm3PE-303" value="" style="shape=partialRectangle;collapsible=0;dropTarget=0;pointerEvents=0;fillColor=none;top=0;left=0;bottom=0;right=0;points=[[0,0.5],[1,0.5]];portConstraint=eastwest;" parent="OICg_AFk18oYCSIzm3PE-219" vertex="1">
          <mxGeometry y="300" width="255" height="30" as="geometry" />
        </mxCell>
        <mxCell id="OICg_AFk18oYCSIzm3PE-304" value="" style="shape=partialRectangle;connectable=0;fillColor=none;top=0;left=0;bottom=0;right=0;editable=1;overflow=hidden;" parent="OICg_AFk18oYCSIzm3PE-303" vertex="1">
          <mxGeometry width="35" height="30" as="geometry" />
        </mxCell>
        <mxCell id="OICg_AFk18oYCSIzm3PE-305" value="GoalsScoredByPlayer int NOT NULL" style="shape=partialRectangle;connectable=0;fillColor=none;top=0;left=0;bottom=0;right=0;align=left;spacingLeft=6;overflow=hidden;" parent="OICg_AFk18oYCSIzm3PE-303" vertex="1">
          <mxGeometry x="35" width="220" height="30" as="geometry" />
        </mxCell>
        <mxCell id="OICg_AFk18oYCSIzm3PE-312" value="" style="shape=partialRectangle;collapsible=0;dropTarget=0;pointerEvents=0;fillColor=none;top=0;left=0;bottom=0;right=0;points=[[0,0.5],[1,0.5]];portConstraint=eastwest;" parent="OICg_AFk18oYCSIzm3PE-219" vertex="1">
          <mxGeometry y="330" width="255" height="30" as="geometry" />
        </mxCell>
        <mxCell id="OICg_AFk18oYCSIzm3PE-313" value="" style="shape=partialRectangle;connectable=0;fillColor=none;top=0;left=0;bottom=0;right=0;editable=1;overflow=hidden;" parent="OICg_AFk18oYCSIzm3PE-312" vertex="1">
          <mxGeometry width="35" height="30" as="geometry" />
        </mxCell>
        <mxCell id="OICg_AFk18oYCSIzm3PE-314" value="WinningTeam string NOT NULL" style="shape=partialRectangle;connectable=0;fillColor=none;top=0;left=0;bottom=0;right=0;align=left;spacingLeft=6;overflow=hidden;" parent="OICg_AFk18oYCSIzm3PE-312" vertex="1">
          <mxGeometry x="35" width="220" height="30" as="geometry" />
        </mxCell>
        <mxCell id="OICg_AFk18oYCSIzm3PE-232" value="Season" style="shape=table;startSize=30;container=1;collapsible=1;childLayout=tableLayout;fixedRows=1;rowLines=0;fontStyle=1;align=center;resizeLast=1;" parent="1" vertex="1">
          <mxGeometry x="10" y="2630" width="200" height="160" as="geometry" />
        </mxCell>
        <mxCell id="OICg_AFk18oYCSIzm3PE-233" value="" style="shape=partialRectangle;collapsible=0;dropTarget=0;pointerEvents=0;fillColor=none;top=0;left=0;bottom=1;right=0;points=[[0,0.5],[1,0.5]];portConstraint=eastwest;" parent="OICg_AFk18oYCSIzm3PE-232" vertex="1">
          <mxGeometry y="30" width="200" height="30" as="geometry" />
        </mxCell>
        <mxCell id="OICg_AFk18oYCSIzm3PE-234" value="PK" style="shape=partialRectangle;connectable=0;fillColor=none;top=0;left=0;bottom=0;right=0;fontStyle=1;overflow=hidden;" parent="OICg_AFk18oYCSIzm3PE-233" vertex="1">
          <mxGeometry width="30" height="30" as="geometry" />
        </mxCell>
        <mxCell id="OICg_AFk18oYCSIzm3PE-235" value="seasonID int NOT NULL" style="shape=partialRectangle;connectable=0;fillColor=none;top=0;left=0;bottom=0;right=0;align=left;spacingLeft=6;fontStyle=5;overflow=hidden;" parent="OICg_AFk18oYCSIzm3PE-233" vertex="1">
          <mxGeometry x="30" width="170" height="30" as="geometry" />
        </mxCell>
        <mxCell id="OICg_AFk18oYCSIzm3PE-236" value="" style="shape=partialRectangle;collapsible=0;dropTarget=0;pointerEvents=0;fillColor=none;top=0;left=0;bottom=0;right=0;points=[[0,0.5],[1,0.5]];portConstraint=eastwest;" parent="OICg_AFk18oYCSIzm3PE-232" vertex="1">
          <mxGeometry y="60" width="200" height="30" as="geometry" />
        </mxCell>
        <mxCell id="OICg_AFk18oYCSIzm3PE-237" value="" style="shape=partialRectangle;connectable=0;fillColor=none;top=0;left=0;bottom=0;right=0;editable=1;overflow=hidden;" parent="OICg_AFk18oYCSIzm3PE-236" vertex="1">
          <mxGeometry width="30" height="30" as="geometry" />
        </mxCell>
        <mxCell id="OICg_AFk18oYCSIzm3PE-238" value="StartDate date NOT NULL" style="shape=partialRectangle;connectable=0;fillColor=none;top=0;left=0;bottom=0;right=0;align=left;spacingLeft=6;overflow=hidden;" parent="OICg_AFk18oYCSIzm3PE-236" vertex="1">
          <mxGeometry x="30" width="170" height="30" as="geometry" />
        </mxCell>
        <mxCell id="OICg_AFk18oYCSIzm3PE-239" value="" style="shape=partialRectangle;collapsible=0;dropTarget=0;pointerEvents=0;fillColor=none;top=0;left=0;bottom=0;right=0;points=[[0,0.5],[1,0.5]];portConstraint=eastwest;" parent="OICg_AFk18oYCSIzm3PE-232" vertex="1">
          <mxGeometry y="90" width="200" height="30" as="geometry" />
        </mxCell>
        <mxCell id="OICg_AFk18oYCSIzm3PE-240" value="" style="shape=partialRectangle;connectable=0;fillColor=none;top=0;left=0;bottom=0;right=0;editable=1;overflow=hidden;" parent="OICg_AFk18oYCSIzm3PE-239" vertex="1">
          <mxGeometry width="30" height="30" as="geometry" />
        </mxCell>
        <mxCell id="OICg_AFk18oYCSIzm3PE-241" value="EndDate date NOT NULL" style="shape=partialRectangle;connectable=0;fillColor=none;top=0;left=0;bottom=0;right=0;align=left;spacingLeft=6;overflow=hidden;" parent="OICg_AFk18oYCSIzm3PE-239" vertex="1">
          <mxGeometry x="30" width="170" height="30" as="geometry" />
        </mxCell>
        <mxCell id="OICg_AFk18oYCSIzm3PE-242" value="" style="shape=partialRectangle;collapsible=0;dropTarget=0;pointerEvents=0;fillColor=none;top=0;left=0;bottom=0;right=0;points=[[0,0.5],[1,0.5]];portConstraint=eastwest;" parent="OICg_AFk18oYCSIzm3PE-232" vertex="1">
          <mxGeometry y="120" width="200" height="30" as="geometry" />
        </mxCell>
        <mxCell id="OICg_AFk18oYCSIzm3PE-243" value="" style="shape=partialRectangle;connectable=0;fillColor=none;top=0;left=0;bottom=0;right=0;editable=1;overflow=hidden;" parent="OICg_AFk18oYCSIzm3PE-242" vertex="1">
          <mxGeometry width="30" height="30" as="geometry" />
        </mxCell>
        <mxCell id="OICg_AFk18oYCSIzm3PE-244" value="" style="shape=partialRectangle;connectable=0;fillColor=none;top=0;left=0;bottom=0;right=0;align=left;spacingLeft=6;overflow=hidden;" parent="OICg_AFk18oYCSIzm3PE-242" vertex="1">
          <mxGeometry x="30" width="170" height="30" as="geometry" />
        </mxCell>
        <mxCell id="aMtoXORfHzRGaOY2vuZP-2" value="Diagnosis" style="shape=table;startSize=30;container=1;collapsible=1;childLayout=tableLayout;fixedRows=1;rowLines=0;fontStyle=1;align=center;resizeLast=1;" vertex="1" parent="1">
          <mxGeometry x="100" y="820" width="215" height="160" as="geometry" />
        </mxCell>
        <mxCell id="aMtoXORfHzRGaOY2vuZP-3" value="" style="shape=partialRectangle;collapsible=0;dropTarget=0;pointerEvents=0;fillColor=none;top=0;left=0;bottom=1;right=0;points=[[0,0.5],[1,0.5]];portConstraint=eastwest;" vertex="1" parent="aMtoXORfHzRGaOY2vuZP-2">
          <mxGeometry y="30" width="215" height="30" as="geometry" />
        </mxCell>
        <mxCell id="aMtoXORfHzRGaOY2vuZP-4" value="PK" style="shape=partialRectangle;connectable=0;fillColor=none;top=0;left=0;bottom=0;right=0;fontStyle=1;overflow=hidden;" vertex="1" parent="aMtoXORfHzRGaOY2vuZP-3">
          <mxGeometry width="30" height="30" as="geometry" />
        </mxCell>
        <mxCell id="aMtoXORfHzRGaOY2vuZP-5" value="diagnosisID int NOT NULL" style="shape=partialRectangle;connectable=0;fillColor=none;top=0;left=0;bottom=0;right=0;align=left;spacingLeft=6;fontStyle=5;overflow=hidden;" vertex="1" parent="aMtoXORfHzRGaOY2vuZP-3">
          <mxGeometry x="30" width="185" height="30" as="geometry" />
        </mxCell>
        <mxCell id="aMtoXORfHzRGaOY2vuZP-6" value="" style="shape=partialRectangle;collapsible=0;dropTarget=0;pointerEvents=0;fillColor=none;top=0;left=0;bottom=0;right=0;points=[[0,0.5],[1,0.5]];portConstraint=eastwest;" vertex="1" parent="aMtoXORfHzRGaOY2vuZP-2">
          <mxGeometry y="60" width="215" height="30" as="geometry" />
        </mxCell>
        <mxCell id="aMtoXORfHzRGaOY2vuZP-7" value="" style="shape=partialRectangle;connectable=0;fillColor=none;top=0;left=0;bottom=0;right=0;editable=1;overflow=hidden;" vertex="1" parent="aMtoXORfHzRGaOY2vuZP-6">
          <mxGeometry width="30" height="30" as="geometry" />
        </mxCell>
        <mxCell id="aMtoXORfHzRGaOY2vuZP-8" value="Description string NOT NULL" style="shape=partialRectangle;connectable=0;fillColor=none;top=0;left=0;bottom=0;right=0;align=left;spacingLeft=6;overflow=hidden;" vertex="1" parent="aMtoXORfHzRGaOY2vuZP-6">
          <mxGeometry x="30" width="185" height="30" as="geometry" />
        </mxCell>
        <mxCell id="aMtoXORfHzRGaOY2vuZP-9" value="" style="shape=partialRectangle;collapsible=0;dropTarget=0;pointerEvents=0;fillColor=none;top=0;left=0;bottom=0;right=0;points=[[0,0.5],[1,0.5]];portConstraint=eastwest;" vertex="1" parent="aMtoXORfHzRGaOY2vuZP-2">
          <mxGeometry y="90" width="215" height="30" as="geometry" />
        </mxCell>
        <mxCell id="aMtoXORfHzRGaOY2vuZP-10" value="" style="shape=partialRectangle;connectable=0;fillColor=none;top=0;left=0;bottom=0;right=0;editable=1;overflow=hidden;" vertex="1" parent="aMtoXORfHzRGaOY2vuZP-9">
          <mxGeometry width="30" height="30" as="geometry" />
        </mxCell>
        <mxCell id="aMtoXORfHzRGaOY2vuZP-11" value="" style="shape=partialRectangle;connectable=0;fillColor=none;top=0;left=0;bottom=0;right=0;align=left;spacingLeft=6;overflow=hidden;" vertex="1" parent="aMtoXORfHzRGaOY2vuZP-9">
          <mxGeometry x="30" width="185" height="30" as="geometry" />
        </mxCell>
        <mxCell id="aMtoXORfHzRGaOY2vuZP-12" value="" style="shape=partialRectangle;collapsible=0;dropTarget=0;pointerEvents=0;fillColor=none;top=0;left=0;bottom=0;right=0;points=[[0,0.5],[1,0.5]];portConstraint=eastwest;" vertex="1" parent="aMtoXORfHzRGaOY2vuZP-2">
          <mxGeometry y="120" width="215" height="30" as="geometry" />
        </mxCell>
        <mxCell id="aMtoXORfHzRGaOY2vuZP-13" value="" style="shape=partialRectangle;connectable=0;fillColor=none;top=0;left=0;bottom=0;right=0;editable=1;overflow=hidden;" vertex="1" parent="aMtoXORfHzRGaOY2vuZP-12">
          <mxGeometry width="30" height="30" as="geometry" />
        </mxCell>
        <mxCell id="aMtoXORfHzRGaOY2vuZP-14" value="" style="shape=partialRectangle;connectable=0;fillColor=none;top=0;left=0;bottom=0;right=0;align=left;spacingLeft=6;overflow=hidden;" vertex="1" parent="aMtoXORfHzRGaOY2vuZP-12">
          <mxGeometry x="30" width="185" height="30" as="geometry" />
        </mxCell>
        <mxCell id="aMtoXORfHzRGaOY2vuZP-15" value="Visit" style="shape=table;startSize=30;container=1;collapsible=1;childLayout=tableLayout;fixedRows=1;rowLines=0;fontStyle=1;align=center;resizeLast=1;" vertex="1" parent="1">
          <mxGeometry x="440" y="440" width="215" height="190" as="geometry" />
        </mxCell>
        <mxCell id="aMtoXORfHzRGaOY2vuZP-16" value="" style="shape=partialRectangle;collapsible=0;dropTarget=0;pointerEvents=0;fillColor=none;top=0;left=0;bottom=1;right=0;points=[[0,0.5],[1,0.5]];portConstraint=eastwest;" vertex="1" parent="aMtoXORfHzRGaOY2vuZP-15">
          <mxGeometry y="30" width="215" height="30" as="geometry" />
        </mxCell>
        <mxCell id="aMtoXORfHzRGaOY2vuZP-17" value="PK" style="shape=partialRectangle;connectable=0;fillColor=none;top=0;left=0;bottom=0;right=0;fontStyle=1;overflow=hidden;" vertex="1" parent="aMtoXORfHzRGaOY2vuZP-16">
          <mxGeometry width="30" height="30" as="geometry" />
        </mxCell>
        <mxCell id="aMtoXORfHzRGaOY2vuZP-18" value="visitID int NOT NULL" style="shape=partialRectangle;connectable=0;fillColor=none;top=0;left=0;bottom=0;right=0;align=left;spacingLeft=6;fontStyle=5;overflow=hidden;" vertex="1" parent="aMtoXORfHzRGaOY2vuZP-16">
          <mxGeometry x="30" width="185" height="30" as="geometry" />
        </mxCell>
        <mxCell id="aMtoXORfHzRGaOY2vuZP-19" value="" style="shape=partialRectangle;collapsible=0;dropTarget=0;pointerEvents=0;fillColor=none;top=0;left=0;bottom=0;right=0;points=[[0,0.5],[1,0.5]];portConstraint=eastwest;" vertex="1" parent="aMtoXORfHzRGaOY2vuZP-15">
          <mxGeometry y="60" width="215" height="30" as="geometry" />
        </mxCell>
        <mxCell id="aMtoXORfHzRGaOY2vuZP-20" value="FK" style="shape=partialRectangle;connectable=0;fillColor=none;top=0;left=0;bottom=0;right=0;editable=1;overflow=hidden;fontStyle=1" vertex="1" parent="aMtoXORfHzRGaOY2vuZP-19">
          <mxGeometry width="30" height="30" as="geometry" />
        </mxCell>
        <mxCell id="aMtoXORfHzRGaOY2vuZP-21" value="patientID int NOT NULL" style="shape=partialRectangle;connectable=0;fillColor=none;top=0;left=0;bottom=0;right=0;align=left;spacingLeft=6;overflow=hidden;" vertex="1" parent="aMtoXORfHzRGaOY2vuZP-19">
          <mxGeometry x="30" width="185" height="30" as="geometry" />
        </mxCell>
        <mxCell id="aMtoXORfHzRGaOY2vuZP-22" value="" style="shape=partialRectangle;collapsible=0;dropTarget=0;pointerEvents=0;fillColor=none;top=0;left=0;bottom=0;right=0;points=[[0,0.5],[1,0.5]];portConstraint=eastwest;" vertex="1" parent="aMtoXORfHzRGaOY2vuZP-15">
          <mxGeometry y="90" width="215" height="30" as="geometry" />
        </mxCell>
        <mxCell id="aMtoXORfHzRGaOY2vuZP-23" value="FK" style="shape=partialRectangle;connectable=0;fillColor=none;top=0;left=0;bottom=0;right=0;editable=1;overflow=hidden;fontStyle=1" vertex="1" parent="aMtoXORfHzRGaOY2vuZP-22">
          <mxGeometry width="30" height="30" as="geometry" />
        </mxCell>
        <mxCell id="aMtoXORfHzRGaOY2vuZP-24" value="doctorID int NOT NULL" style="shape=partialRectangle;connectable=0;fillColor=none;top=0;left=0;bottom=0;right=0;align=left;spacingLeft=6;overflow=hidden;" vertex="1" parent="aMtoXORfHzRGaOY2vuZP-22">
          <mxGeometry x="30" width="185" height="30" as="geometry" />
        </mxCell>
        <mxCell id="aMtoXORfHzRGaOY2vuZP-135" value="" style="shape=partialRectangle;collapsible=0;dropTarget=0;pointerEvents=0;fillColor=none;top=0;left=0;bottom=0;right=0;points=[[0,0.5],[1,0.5]];portConstraint=eastwest;" vertex="1" parent="aMtoXORfHzRGaOY2vuZP-15">
          <mxGeometry y="120" width="215" height="30" as="geometry" />
        </mxCell>
        <mxCell id="aMtoXORfHzRGaOY2vuZP-136" value="FK" style="shape=partialRectangle;connectable=0;fillColor=none;top=0;left=0;bottom=0;right=0;editable=1;overflow=hidden;fontStyle=1" vertex="1" parent="aMtoXORfHzRGaOY2vuZP-135">
          <mxGeometry width="30" height="30" as="geometry" />
        </mxCell>
        <mxCell id="aMtoXORfHzRGaOY2vuZP-137" value="diagnosisID int NOT NULL" style="shape=partialRectangle;connectable=0;fillColor=none;top=0;left=0;bottom=0;right=0;align=left;spacingLeft=6;overflow=hidden;" vertex="1" parent="aMtoXORfHzRGaOY2vuZP-135">
          <mxGeometry x="30" width="185" height="30" as="geometry" />
        </mxCell>
        <mxCell id="aMtoXORfHzRGaOY2vuZP-25" value="" style="shape=partialRectangle;collapsible=0;dropTarget=0;pointerEvents=0;fillColor=none;top=0;left=0;bottom=0;right=0;points=[[0,0.5],[1,0.5]];portConstraint=eastwest;" vertex="1" parent="aMtoXORfHzRGaOY2vuZP-15">
          <mxGeometry y="150" width="215" height="30" as="geometry" />
        </mxCell>
        <mxCell id="aMtoXORfHzRGaOY2vuZP-26" value="" style="shape=partialRectangle;connectable=0;fillColor=none;top=0;left=0;bottom=0;right=0;editable=1;overflow=hidden;fontStyle=1" vertex="1" parent="aMtoXORfHzRGaOY2vuZP-25">
          <mxGeometry width="30" height="30" as="geometry" />
        </mxCell>
        <mxCell id="aMtoXORfHzRGaOY2vuZP-27" value="Visit_Date date NOT NULL" style="shape=partialRectangle;connectable=0;fillColor=none;top=0;left=0;bottom=0;right=0;align=left;spacingLeft=6;overflow=hidden;" vertex="1" parent="aMtoXORfHzRGaOY2vuZP-25">
          <mxGeometry x="30" width="185" height="30" as="geometry" />
        </mxCell>
        <mxCell id="aMtoXORfHzRGaOY2vuZP-28" value="" style="edgeStyle=entityRelationEdgeStyle;fontSize=12;html=1;endArrow=ERoneToMany;entryX=0;entryY=0.5;entryDx=0;entryDy=0;exitX=1;exitY=0.5;exitDx=0;exitDy=0;" edge="1" parent="1" source="OICg_AFk18oYCSIzm3PE-46" target="aMtoXORfHzRGaOY2vuZP-19">
          <mxGeometry width="100" height="100" relative="1" as="geometry">
            <mxPoint x="250" y="510" as="sourcePoint" />
            <mxPoint x="350" y="410" as="targetPoint" />
          </mxGeometry>
        </mxCell>
        <mxCell id="aMtoXORfHzRGaOY2vuZP-29" value="" style="edgeStyle=entityRelationEdgeStyle;fontSize=12;html=1;endArrow=ERoneToMany;exitX=1;exitY=0.5;exitDx=0;exitDy=0;entryX=0;entryY=0.5;entryDx=0;entryDy=0;" edge="1" parent="1" source="OICg_AFk18oYCSIzm3PE-33" target="aMtoXORfHzRGaOY2vuZP-22">
          <mxGeometry width="100" height="100" relative="1" as="geometry">
            <mxPoint x="260" y="520" as="sourcePoint" />
            <mxPoint x="380" y="505" as="targetPoint" />
          </mxGeometry>
        </mxCell>
        <mxCell id="aMtoXORfHzRGaOY2vuZP-31" value="" style="edgeStyle=entityRelationEdgeStyle;fontSize=12;html=1;endArrow=ERoneToMany;exitX=1.005;exitY=0.8;exitDx=0;exitDy=0;exitPerimeter=0;" edge="1" parent="1" source="aMtoXORfHzRGaOY2vuZP-3">
          <mxGeometry width="100" height="100" relative="1" as="geometry">
            <mxPoint x="340" y="830" as="sourcePoint" />
            <mxPoint x="440" y="730" as="targetPoint" />
          </mxGeometry>
        </mxCell>
        <mxCell id="aMtoXORfHzRGaOY2vuZP-34" value="&lt;h1&gt;Notes:&lt;/h1&gt;&lt;p&gt;- Each user has a preferred region (vs. regions) and posts.&lt;/p&gt;&lt;p&gt;- Each post has one region, but one region can have many posts.&lt;/p&gt;&lt;p&gt;- Think of the &quot;Posts&quot; table as the ultimate bridge table, where we would be able to work with multiple SQL joins to combine the data from the Posts with &quot;Users&quot; and &quot;Categories&quot;.&lt;/p&gt;&lt;p&gt;&lt;br&gt;&lt;/p&gt;" style="text;html=1;strokeColor=none;fillColor=none;spacing=5;spacingTop=-20;whiteSpace=wrap;overflow=hidden;rounded=0;" vertex="1" parent="1">
          <mxGeometry x="515" y="1610" width="195" height="220" as="geometry" />
        </mxCell>
        <mxCell id="aMtoXORfHzRGaOY2vuZP-63" value="" style="edgeStyle=entityRelationEdgeStyle;fontSize=12;html=1;endArrow=ERmandOne;startArrow=ERmandOne;exitX=1;exitY=0.5;exitDx=0;exitDy=0;entryX=0;entryY=0.5;entryDx=0;entryDy=0;" edge="1" parent="1" source="OICg_AFk18oYCSIzm3PE-128" target="OICg_AFk18oYCSIzm3PE-150">
          <mxGeometry width="100" height="100" relative="1" as="geometry">
            <mxPoint x="380" y="1300" as="sourcePoint" />
            <mxPoint x="480" y="1200" as="targetPoint" />
          </mxGeometry>
        </mxCell>
        <mxCell id="aMtoXORfHzRGaOY2vuZP-67" value="&lt;span style=&quot;text-align: left&quot;&gt;RegionLocation string NOT NULL&lt;/span&gt;" style="text;html=1;align=center;verticalAlign=middle;resizable=0;points=[];autosize=1;" vertex="1" parent="1">
          <mxGeometry x="180" y="1600" width="190" height="20" as="geometry" />
        </mxCell>
        <mxCell id="aMtoXORfHzRGaOY2vuZP-77" value="1-to-1" style="text;html=1;strokeColor=none;fillColor=none;align=center;verticalAlign=middle;whiteSpace=wrap;rounded=0;" vertex="1" parent="1">
          <mxGeometry x="380" y="1150" width="40" height="20" as="geometry" />
        </mxCell>
        <mxCell id="aMtoXORfHzRGaOY2vuZP-83" value="" style="edgeStyle=entityRelationEdgeStyle;fontSize=12;html=1;endArrow=ERmandOne;startArrow=ERmandOne;exitX=1;exitY=0.5;exitDx=0;exitDy=0;" edge="1" parent="1" source="OICg_AFk18oYCSIzm3PE-176" target="OICg_AFk18oYCSIzm3PE-128">
          <mxGeometry width="100" height="100" relative="1" as="geometry">
            <mxPoint x="130" y="1440" as="sourcePoint" />
            <mxPoint x="490" y="1210" as="targetPoint" />
          </mxGeometry>
        </mxCell>
        <mxCell id="aMtoXORfHzRGaOY2vuZP-85" value="" style="edgeStyle=entityRelationEdgeStyle;fontSize=12;html=1;endArrow=ERoneToMany;exitX=0;exitY=0.5;exitDx=0;exitDy=0;entryX=1;entryY=0.5;entryDx=0;entryDy=0;" edge="1" parent="1" source="OICg_AFk18oYCSIzm3PE-141" target="OICg_AFk18oYCSIzm3PE-167">
          <mxGeometry width="100" height="100" relative="1" as="geometry">
            <mxPoint x="389.99500000000006" y="1464" as="sourcePoint" />
            <mxPoint x="513.92" y="1320" as="targetPoint" />
          </mxGeometry>
        </mxCell>
        <mxCell id="aMtoXORfHzRGaOY2vuZP-87" value="" style="edgeStyle=entityRelationEdgeStyle;fontSize=12;html=1;endArrow=ERoneToMany;exitX=1;exitY=0.5;exitDx=0;exitDy=0;entryX=0;entryY=0.5;entryDx=0;entryDy=0;" edge="1" parent="1" source="OICg_AFk18oYCSIzm3PE-322" target="OICg_AFk18oYCSIzm3PE-160">
          <mxGeometry width="100" height="100" relative="1" as="geometry">
            <mxPoint x="520" y="1300" as="sourcePoint" />
            <mxPoint x="220" y="1530" as="targetPoint" />
          </mxGeometry>
        </mxCell>
        <mxCell id="aMtoXORfHzRGaOY2vuZP-89" value="&lt;h1&gt;Notes:&lt;/h1&gt;&lt;div&gt;- The Visit table will be used as our bridge table, where we would want to join data from our &quot;Patients&quot;, &quot;Doctors&quot; and &quot;Diagnosis&quot; table for final analysis.&lt;/div&gt;" style="text;html=1;strokeColor=none;fillColor=none;spacing=5;spacingTop=-20;whiteSpace=wrap;overflow=hidden;rounded=0;" vertex="1" parent="1">
          <mxGeometry x="440" y="960" width="190" height="140" as="geometry" />
        </mxCell>
        <mxCell id="aMtoXORfHzRGaOY2vuZP-116" value="&lt;h1&gt;Notes:&lt;/h1&gt;&lt;div&gt;- Each player will have one team, and one team will have many players.&lt;/div&gt;&lt;div&gt;- Each match will have one season, and each season will have many matches.&lt;/div&gt;&lt;div&gt;- Our matches table will be our &quot;bridge table&quot; to join the &quot;Players&quot; table with &quot;Teams&quot; table for further analysis.&lt;/div&gt;" style="text;html=1;strokeColor=none;fillColor=none;spacing=5;spacingTop=-20;whiteSpace=wrap;overflow=hidden;rounded=0;" vertex="1" parent="1">
          <mxGeometry x="60" y="2970" width="190" height="200" as="geometry" />
        </mxCell>
        <mxCell id="aMtoXORfHzRGaOY2vuZP-119" value="" style="edgeStyle=entityRelationEdgeStyle;fontSize=12;html=1;endArrow=ERoneToMany;exitX=0;exitY=0.5;exitDx=0;exitDy=0;entryX=1;entryY=0.5;entryDx=0;entryDy=0;" edge="1" parent="1" source="OICg_AFk18oYCSIzm3PE-181" target="OICg_AFk18oYCSIzm3PE-220">
          <mxGeometry width="100" height="100" relative="1" as="geometry">
            <mxPoint x="110" y="2910" as="sourcePoint" />
            <mxPoint x="250" y="2990" as="targetPoint" />
          </mxGeometry>
        </mxCell>
        <mxCell id="aMtoXORfHzRGaOY2vuZP-120" value="" style="edgeStyle=entityRelationEdgeStyle;fontSize=12;html=1;endArrow=ERoneToMany;exitX=0;exitY=0.5;exitDx=0;exitDy=0;entryX=1;entryY=0.5;entryDx=0;entryDy=0;" edge="1" parent="1" source="OICg_AFk18oYCSIzm3PE-181" target="aMtoXORfHzRGaOY2vuZP-113">
          <mxGeometry width="100" height="100" relative="1" as="geometry">
            <mxPoint x="350" y="2650" as="sourcePoint" />
            <mxPoint x="490" y="2730" as="targetPoint" />
          </mxGeometry>
        </mxCell>
        <mxCell id="aMtoXORfHzRGaOY2vuZP-128" value="" style="edgeStyle=entityRelationEdgeStyle;fontSize=12;html=1;endArrow=ERoneToMany;exitX=1;exitY=0.5;exitDx=0;exitDy=0;" edge="1" parent="1" source="OICg_AFk18oYCSIzm3PE-233" target="aMtoXORfHzRGaOY2vuZP-110">
          <mxGeometry width="100" height="100" relative="1" as="geometry">
            <mxPoint x="220" y="2620" as="sourcePoint" />
            <mxPoint x="155" y="2660" as="targetPoint" />
          </mxGeometry>
        </mxCell>
        <mxCell id="aMtoXORfHzRGaOY2vuZP-129" value="" style="edgeStyle=entityRelationEdgeStyle;fontSize=12;html=1;endArrow=ERoneToMany;exitX=0;exitY=0.5;exitDx=0;exitDy=0;entryX=1;entryY=0.5;entryDx=0;entryDy=0;" edge="1" parent="1" source="aMtoXORfHzRGaOY2vuZP-107" target="OICg_AFk18oYCSIzm3PE-306">
          <mxGeometry width="100" height="100" relative="1" as="geometry">
            <mxPoint x="230" y="2685" as="sourcePoint" />
            <mxPoint x="290" y="2595" as="targetPoint" />
          </mxGeometry>
        </mxCell>
        <mxCell id="aMtoXORfHzRGaOY2vuZP-132" value="" style="edgeStyle=entityRelationEdgeStyle;fontSize=12;html=1;endArrow=ERoneToMany;exitX=1;exitY=0.5;exitDx=0;exitDy=0;entryX=1;entryY=0.5;entryDx=0;entryDy=0;" edge="1" parent="1" source="OICg_AFk18oYCSIzm3PE-181" target="OICg_AFk18oYCSIzm3PE-194">
          <mxGeometry width="100" height="100" relative="1" as="geometry">
            <mxPoint x="550" y="2325" as="sourcePoint" />
            <mxPoint x="545" y="2685" as="targetPoint" />
          </mxGeometry>
        </mxCell>
        <mxCell id="aMtoXORfHzRGaOY2vuZP-134" value="&lt;h1&gt;Part 1:&lt;/h1&gt;&lt;div&gt;&lt;div class=&quot;section&quot; id=&quot;part-one-medical-center&quot;&gt;&lt;p&gt;Design the schema for a medical center.&lt;/p&gt;&lt;ul class=&quot;simple&quot; style=&quot;padding-left: 1.5em&quot;&gt;&lt;li style=&quot;margin: 0.5em 0px&quot;&gt;A medical center employs several doctors&lt;/li&gt;&lt;li style=&quot;margin: 0.5em 0px&quot;&gt;A doctors can see many patients&lt;/li&gt;&lt;li style=&quot;margin: 0.5em 0px&quot;&gt;A patient can be seen by many doctors&lt;/li&gt;&lt;li style=&quot;margin: 0.5em 0px&quot;&gt;During a visit, a patient may be diagnosed to have one or more diseases.&lt;/li&gt;&lt;/ul&gt;&lt;/div&gt;&lt;div class=&quot;section&quot; id=&quot;part-two-craigslist&quot;&gt;&lt;br class=&quot;Apple-interchange-newline&quot;&gt;&lt;/div&gt;&lt;/div&gt;" style="text;html=1;strokeColor=none;fillColor=none;spacing=5;spacingTop=-20;whiteSpace=wrap;overflow=hidden;rounded=0;" vertex="1" parent="1">
          <mxGeometry x="655" y="610" width="190" height="280" as="geometry" />
        </mxCell>
        <mxCell id="aMtoXORfHzRGaOY2vuZP-144" value="" style="edgeStyle=entityRelationEdgeStyle;fontSize=12;html=1;endArrow=ERmandOne;startArrow=ERmandOne;exitX=1;exitY=0.5;exitDx=0;exitDy=0;entryX=0;entryY=0.5;entryDx=0;entryDy=0;" edge="1" parent="1" source="aMtoXORfHzRGaOY2vuZP-3" target="aMtoXORfHzRGaOY2vuZP-135">
          <mxGeometry width="100" height="100" relative="1" as="geometry">
            <mxPoint x="340" y="760" as="sourcePoint" />
            <mxPoint x="340" y="490" as="targetPoint" />
          </mxGeometry>
        </mxCell>
        <mxCell id="aMtoXORfHzRGaOY2vuZP-147" value="&lt;h1&gt;&lt;font style=&quot;font-size: 18px&quot;&gt;Part 2:&lt;/font&gt;&lt;/h1&gt;&lt;h1&gt;&lt;font size=&quot;3&quot;&gt;&lt;span style=&quot;font-family: &amp;#34;roboto&amp;#34; , sans-serif ; font-weight: normal&quot;&gt;Design a schema for Craigslist! Your schema should keep track of the following&lt;/span&gt;&lt;br&gt;&lt;/font&gt;&lt;/h1&gt;&lt;ul class=&quot;simple&quot; style=&quot;padding-left: 1.5em ; font-family: &amp;#34;roboto&amp;#34; , sans-serif&quot;&gt;&lt;li style=&quot;margin: 0.5em 0px&quot;&gt;&lt;font size=&quot;3&quot;&gt;The region of the craigslist post (San Francisco, Atlanta, Seattle, etc)&lt;/font&gt;&lt;/li&gt;&lt;li style=&quot;margin: 0.5em 0px&quot;&gt;&lt;font size=&quot;3&quot;&gt;Users and preferred region&lt;/font&gt;&lt;/li&gt;&lt;li style=&quot;margin: 0.5em 0px&quot;&gt;&lt;font size=&quot;3&quot;&gt;Posts: contains title, text, the user who has posted, the location of the posting, the region of the posting&lt;/font&gt;&lt;/li&gt;&lt;li style=&quot;margin: 0.5em 0px&quot;&gt;&lt;font size=&quot;3&quot;&gt;Categories that each post belongs to&lt;/font&gt;&lt;/li&gt;&lt;/ul&gt;" style="text;html=1;strokeColor=none;fillColor=none;spacing=5;spacingTop=-20;whiteSpace=wrap;overflow=hidden;rounded=0;" vertex="1" parent="1">
          <mxGeometry x="30" y="1640" width="360" height="280" as="geometry" />
        </mxCell>
      </root>
    </mxGraphModel>
  </diagram>
</mxfile>
